<?xml version="1.0" standalone="no"?>
<!DOCTYPE svg PUBLIC "-//W3C//DTD SVG 1.1//EN" "http://www.w3.org/Graphics/SVG/1.1/DTD/svg11.dtd">
<svg xmlns="http://www.w3.org/2000/svg">
<metadata>Copyright (C) 2014 by original authors @ fontello.com</metadata>
<defs>
<font id="soap-icons" horiz-adv-x="1000" >
<font-face font-family="soap-icons" font-weight="400" font-stretch="normal" units-per-em="1000" ascent="850" descent="-150" />
<missing-glyph horiz-adv-x="1000" />
<glyph glyph-name="icon6" unicode="&#xe800;" d="m54 122h-6c-15 0-27-12-27-27v-41c0-15 12-27 27-27h128v437h-122v-342z m0 380h726v125l50 46h-826l50-46 0-125 0 0z m740-380h-14v342h-122v-437h136c15 0 27 12 27 27v41c0 15-12 27-27 27z m-268-31c-35 83-21 150 45 217 0 0-88-23-128-93-1 55-22 116-81 126 0 0 37-49 22-105-1-4-2-9-3-13-19 13-43 25-70 36 0 0 61-83 15-150-12 43-38 78-84 94 0 0 43-83 5-164-2-4-4-8-6-12h135c24 58 7 143 7 143 57-39 69-99 69-143h124c23 59 25 124-24 170 0 1 3-54-26-106z" horiz-adv-x="833" />
<glyph glyph-name="icon7" unicode="&#xe801;" d="m599 526h-204l143 141c10 11 10 29 0 40-12 11-30 11-41 0l-172-170-172 170c-11 11-29 11-40 0-11-11-11-29 0-40l143-141h-205c-25 0-45-20-45-45v-451c0-25 20-45 45-45h548c25 0 45 20 45 45v451c0 25-20 45-45 45z m-427-487c-24 0-45 20-45 45 0 24 21 44 45 44 26 0 46-20 46-44 0-25-20-45-46-45z m153 0c-25 0-45 20-45 45 0 24 20 44 45 44 25 0 45-20 45-44 0-25-20-45-45-45z m153 0c-25 0-46 20-46 45 0 24 21 44 46 44 25 0 45-20 45-44 0-25-20-45-45-45z m103 180c0-20-16-36-37-36h-438c-20 0-37 16-37 36v208c0 20 17 36 37 36h438c21 0 37-16 37-36v-208z" horiz-adv-x="650" />
<glyph glyph-name="icon8" unicode="&#xe802;" d="m52 193v-214c0-19 15-34 34-34h410c19 0 34 15 34 34v214h-478z m0 151v-112h478v489c0 19-15 34-34 34h-410c-19 0-34-15-34-34v-212h-15c-18 0-34-15-34-33v-99c0-18 16-33 34-33l15 0 0 0z m-26 49v67c0 12 10 22 22 22h4v-111h-4c-12 0-22 10-22 22z" horiz-adv-x="533" />
<glyph glyph-name="icon9" unicode="&#xe803;" d="m680 356c0 0-255-218-220-59 5 19 6 34 5 45 53-6 117 12 174 78 89 101 48 192-7 237-55 46-197 93-272 2 0 0 221-252 61-216-20 4-35 5-46 4 5 53-12 115-79 172-102 88-195 47-240-7-46-55-94-194-2-268 0 0 255 218 219 59-4-19-6-34-5-45-53 6-116-12-174-78-88-101-47-192 8-237 55-46 196-93 271-2 0 0-220 252-60 216 19-4 34-5 46-4-6-53 11-115 78-172 103-88 195-47 240 7 46 55 94 194 3 268z m-311-67c-34 0-61 27-61 61 0 33 27 60 61 60 34 0 61-27 61-60 0-34-27-61-61-61z m0 78c-10 0-18-8-18-17 0-10 8-18 18-18 10 0 18 8 18 18 0 9-8 17-18 17z" horiz-adv-x="733" />
<glyph glyph-name="icon10" unicode="&#xe804;" d="m791 690c-40 49-96 62-120 62-7 0-12-1-14-5-1-1-2-2-2-3-2-9 6-11 15-14 19-6 65-19 97-60 33-39 37-86 39-105 1-10 2-17 9-18 1 0 1 0 1 0 3 0 7 1 9 6 6 13 14 80-34 137z m-143 16c-5 0-10-1-13-5 0-1-1-2-1-3-2-8 6-10 13-13 16-4 53-16 79-49 27-32 30-69 32-85 0-8 1-15 8-16 1 0 2 0 2 0 3 0 7 3 8 6 5 11 11 66-28 113-33 41-80 52-100 52z m-11-50c-5 0-9-1-12-4 0-1-1-2-1-4-2-7 6-10 11-11 11-4 37-12 55-35 19-22 22-49 23-60 1-5 1-13 8-14 1 0 1 0 1 0 4 0 7 3 9 6 4 8 9 49-21 84-24 30-59 38-73 38z m-256-404c5-28-1-55-21-73-34-32-97-21-139 24-42 45-48 107-14 139 21 19 51 22 82 13l147 128c-120 105-272 131-363 55-87-72-91-214-18-345-2-1-4-3-6-5-48-51-36-138 26-194 62-57 150-61 198-11 2 3 3 5 5 7 91-38 184-35 247 18 93 77 90 235 1 371l-145-127z m149 331c-24-21-33-54-25-83l-239-209c-15-13-17-35-3-50 13-15 36-17 51-3l239 208c29-12 63-7 87 14 35 30 38 82 8 116-31 34-83 37-118 7z" horiz-adv-x="833" />
<glyph glyph-name="icon1" unicode="&#xe805;" d="m969 427c-16-3-32-10-47-20-5 41-47 64-95 67-36 2-71-4-105-13-4-1-41-14-46-15 96 18 148 4 161 2 17-3 47-19 49-41 2-8-1-27-3-32 9-5 19-9 30-15 34 34 100 68 153 31l1 1c-41 33-67 41-98 35z m-267-189c-102 0-193-39-256-99-71 101-100 208-114 281-7 36-9 58-9 58 79-14 170-127 170-127 62 108-135 168-135 168 86 72 245 2 245 2-72 169-261 67-261 67 98 134 245 91 245 91-134 99-258 17-272-47-46 201-198 103-198 103 87-6 130-115 130-115-176 128-247 4-247 4 164 10 235-62 235-62-204 8-189-154-189-154 36 65 209 103 209 103-152-142-37-234-37-234-13 106 74 213 74 213l1-1c-2-16-1-39 4-69 14-82 53-205 102-303-27 6-45 4-45 4-116 0-209-80-209-180h901c0 164-154 297-344 297z" horiz-adv-x="1067" />
<glyph glyph-name="icon2" unicode="&#xe806;" d="m385 532h-284l-46-189h367l-37 189z m-31 229l-92-203h45c0 0 64 143 73 164h101v39h-127z m-351-509h48l40-313h284l50 313h48v59h-470v-59z" horiz-adv-x="483" />
<glyph glyph-name="icon3" unicode="&#xe807;" d="m5 0c0-33 27-60 61-60h868c34 0 61 27 61 60h-990z m868 261c-17 2-32-5-46-17-11 12-26 17-43 15-14 3-27-3-40-14-8 9-21 14-37 15-13 1-29-3-41-14-1-2-2-1-4-1-12 13-27 16-44 16-17 0-30-7-40-19-14 15-30 21-47 19-35-3-57-20-59-61 3-39 26-55 59-59 17 1 33 8 45 19 14-12 28-18 47-19 17 0 31 4 40 15 8-10 22-15 41-15 20 0 35 6 44 15 10-11 25-16 41-16 16 2 29 8 40 15 13-12 30-16 47-15 39 9 56 32 53 67-5 38-26 52-56 54z m-401-185c0-17 17-32 38-32h382c20 0 37 15 37 32v35h-457v-35z m-1 250v-36h459v36h0c0 2 1 4 1 6 0 50-103 90-230 90-127 0-230-40-230-90 0-2 0-4 0-6h0z m-110 235h-247l-41-165h319l-31 165z m-5 165h88v34h-110l-80-177h39c0 0 55 125 63 143z m-251-682h247l43 273h42v51h-409v-51h42l35-273z" horiz-adv-x="1000" />
<glyph glyph-name="icon4" unicode="&#xe808;" d="m713 576c-2 6-4 9-9 9l-7 0c0 25-1 58-4 68-4 19-26 68-26 68l-19-8c0 0 20-42 24-58 2-10 4-44 4-70l-5-1c-4 0-6-3-8-7-2-6-12-24-13-32v-7c-22-7-38-27-38-51 0-28 21-51 48-54v-6c0 0-1-7 16-7v-207c0-66-52-119-117-123v635c0 18-16 34-35 34h-413c-19 0-35-16-35-34v-716h-34c0 0-35 0-35-34v-34h35 34 35 413 35 34 35v34c0 0 0 34-35 34h-34v53c81 4 146 70 146 151v207l5 0c4 1 6 4 6 8v48c6 3 10 10 10 16v53c0 8-11 26-13 31z m-53-128c-19 3-34 19-34 39 0 16 10 29 24 35v-30c0-7 5-13 10-16l0-28 0 0z m-170 50c0-19-16-34-34-34h-276c-19 0-35 15-35 34v159c0 18 16 34 35 34h275c19 0 35-16 35-34v-159l0 0z" horiz-adv-x="733" />
<glyph glyph-name="icon5" unicode="&#xe809;" d="m108 323c0-202 166-366 370-366 205 0 371 164 371 366 0 202-166 366-371 366-204 0-370-164-370-366z m99 0c0 148 121 268 271 268 150 0 272-120 272-268 0-148-122-268-272-268-150 0-271 120-271 268z m271 245c137 0 248-110 248-245s-111-245-248-245c-137 0-247 110-247 245 0 135 110 245 247 245z m-450 169h7l-19-195c0-3 4-6 7-6 4 0 11 3 11 6l15 195h6l-4-195c0-3 7-6 11-6 4 0 10 3 10 6l-3 195h6l15-195c0-3 6-6 10-6 4 0 7 3 7 6l-18 195h6c0 0 43-202 20-246-23-44-39-48-39-106 0 0-1-278 14-386 0 0 12-53-28-53-41 0-28 53-28 53 14 108 14 386 14 386 0 58-16 62-39 106-24 44 19 246 19 246z m859-375c0 0-52 451 3 385 107-129 34-380 34-380s-15-267 3-370c0 0 18-51-33-51-51 0-33 51-33 51 18 103 26 365 26 365z" horiz-adv-x="950" />
<glyph glyph-name="icon11" unicode="&#xe80a;" d="m197 533c80-17 101 24 102 43 1 43-27 58-44 90-33 60 48 97 96 80-28 17-72 17-111-2-24-11-39-42-30-70 11-30 41-49 53-80 11-29-16-63-66-61z m126 100c12-37 48-58 63-96 13-35-20-75-80-73 96-20 122 29 122 51 2 52-31 69-52 108-39 72 57 115 115 96-34 19-86 19-132-3-30-14-47-50-36-83z m-148-577h345c32 0 58 24 63 54 8-1 17-3 26-3 73 0 132 58 132 130 0 72-59 130-132 130-9 0-18-1-26-3-5 30-31 54-63 54h-345c-35 0-64-28-64-62v-238c0-34 29-62 64-62z m408 254c9 3 17 5 26 5 44 0 79-35 79-78 0-43-35-78-79-78-9 0-17 2-26 5v146z m-222-368c200 0 361 29 361 56h-722c0-27 162-56 361-56z" horiz-adv-x="733" />
<glyph glyph-name="icon12" unicode="&#xe80b;" d="m536 421c0-114-60-210-142-237 4-1 7-4 7-8 0-5-4-9-9-9h-28c-10-17-22-49 7-77 44-41 20-94 1-115-4-5-11-5-15-2-5 4-5 11-2 15v0c2 2 42 49 1 87-31 30-28 66-16 92h-25c-5 0-9 4-9 9 0 3 1 5 3 7-83 25-145 122-145 238 0 135 83 245 186 245 102 0 186-110 186-245z m76-88c6 0 10 4 10 9 68 18 120 97 120 192 0 107-67 195-150 195-44 0-84-25-111-65 62-51 104-140 104-240 0-29-4-57-10-84-16-26-27-69 10-104 40-38 1-85-1-87l0 0c-4-4-3-11 1-15 5-4 12-3 15 1 19 22 44 74 0 116-32 30-15 66-5 82l17 0 0 0z m-491 67c-5 20-8 40-8 61 0 72 30 135 75 172-20 29-48 47-80 47-60 0-108-63-108-140 0-68 37-125 87-138 0-4 3-7 6-7h13c7-11 19-37-3-58-32-30-15-68-1-83 3-4 8-4 11-1 3 2 3 7 0 10l0 0c-1 2-29 35 0 63 27 25 19 56 8 74z" horiz-adv-x="733" />
<glyph glyph-name="icon13" unicode="&#xe80c;" d="m839 578c-2 4-7 5-11 3-4-2-6-7-4-11 12-23 12-50 0-67-9-14-25-21-46-20-11 1-23 7-33 16 7 19 10 39 7 53-4 16-14 24-27 24-16 0-26-9-26-25-1-16 10-38 27-56-8-17-20-32-32-38-39 138-172 175-271 175-99 0-155-24-183-43 0 0-46 38-124 0 0 0 47-11 43-56 0 0-95-112-138-79-30-47-21-88-12-113 14-37 69-55 112-62 15-79 115-118 115-118l-19-93h132l15 80h132l10-80h138l-48 127c0 0 134 91 102 246 1 0 2 0 2 1 16 7 29 23 38 41 12-9 25-16 39-16 27-2 49 8 61 27 15 22 15 56 1 84z m-659-126c-12 0-21 9-21 20 0 12 9 21 21 21 11 0 20-9 20-21 0-11-9-20-20-20z m374 71c-145 70-252 7-253 7l-18 35c5 3 124 73 286-5l-15-37z m178-10c-10 13-17 28-16 38 0 6 2 9 9 9 2 0 8 0 10-11 3-10 1-23-3-36z" horiz-adv-x="850" />
<glyph glyph-name="icon14" unicode="&#xe80d;" d="m367 664l-363-314h91v-313h226v179h91v-179h227v313h90l-362 314z m0-323c-42 0-75 33-75 75 0 41 33 74 75 74 41 0 75-33 75-74 0-42-34-75-75-75z" horiz-adv-x="733" />
<glyph glyph-name="icon17" unicode="&#xe80e;" d="m345 367l-8-5c0 0-2-1-5-3-1 0-2 0-3-1 0 0 0 0-1 0-1-1-3-2-5-2-4-2-8-2-11-2-9 3-35 18-58 24-52 12-112 3-163-32-89-60-117-172-63-250 54-78 170-93 259-33 57 39 89 99 90 158 1 17-2 34 0 45 0 3 1 5 4 8 1 2 4 4 6 6 4 4 8 7 11 9l-53 78z m348 174c-63 90-136 148-164 129 0 0-1 0-1 0-3-3-4-6-4-10-6-32 30-126-89-230-6-5-28-21-59-44l52-78c34 19 59 32 67 36 141 71 216 5 249-2 3-2 7-2 10 0 1 1 1 1 2 1 27 19-1 107-63 198z" horiz-adv-x="767" />
<glyph glyph-name="icon19" unicode="&#xe80f;" d="m736 137c19 17 32 42 32 70 0 53-44 95-98 95-54 0-98-42-98-95 0-28 13-53 33-71-21-5-40-13-57-24 20-41 34-94 34-161h284c0 115-54 169-130 186z m-390 63c27 23 44 57 44 94 0 70-59 127-132 127-72 0-131-57-131-127 0-38 17-71 45-95-100-24-171-96-171-248h520c0 154-73 226-175 249z m223 252c12-66 75-109 140-98l52-40 6 67c32 26 49 68 41 111-11 66-74 109-140 98-66-11-110-73-99-138z m90 190c7 1 14 1 21 1-12 29-32 55-60 74-80 56-190 37-247-42-56-79-37-188 43-243l12-94 76 63c9-1 18-1 27 0-6 13-11 27-14 42-16 93 48 183 142 199z" horiz-adv-x="867" />
<glyph glyph-name="icon15" unicode="&#xe810;" d="m418 314c32 28 52 67 52 112 0 83-70 151-156 151-86 0-156-68-156-151 0-45 20-85 53-113-119-29-204-115-204-296h619c0 183-87 269-208 297z m-378 56c0 0-3-21 48-36 14-3 25 11 25 25v127c0 12-7 23-18 25 36 89 121 151 222 151 100 0 186-62 221-151-10-2-18-13-18-25v-127c0-14 12-28 26-25 50 15 48 36 48 36v106c0 0 3 17-33 31-34 102-131 176-244 176-114 0-210-74-245-176-35-14-32-31-32-31l0-106 0 0z" horiz-adv-x="633" />
<glyph glyph-name="icon16" unicode="&#xe811;" d="m155 213l132 195h-132l154 222-308-323h131l-40-60-91-135h95v-49h70v49h51l70 101-132 0 0 0z m321 45h132l-92 136-40 59h132l-92 136-91 135-91-135-92-136h132l-40-59-92-136h132l-40-60-92-135h147v-87h73v87h146l-92 135-40 60z m242 49h131l-308 323 154-222h-131l131-195h-131l69-101h51v-49h70v49h95l-91 135-40 60z" horiz-adv-x="850" />
<glyph glyph-name="icon20" unicode="&#xe812;" d="m999 115c0 115-54 169-130 186 20 18 32 43 32 70 0 53-43 95-97 95-55 0-99-42-99-95 0-28 13-53 34-71-11-2-21-5-30-9-31 38-74 62-123 73 26 24 43 57 43 94 0 70-59 127-131 127-73 0-132-57-132-127 0-37 18-71 45-95-48-11-90-35-119-72-10 4-20 7-30 9 20 18 33 43 33 71 0 53-44 95-98 95-54 0-98-42-98-95 0-27 12-52 32-70-76-17-130-71-130-186h998v0z" horiz-adv-x="1000" />
<glyph glyph-name="icon18" unicode="&#xe813;" d="m225 7c1-51 1-88 1-88s-7-69 47-69h206c55 0 48 69 48 69s0 37 0 88h-302z m302 298c-3 55-37 99-71 156-34 57-48 140-48 200 0 29 21 34 21 34 16 0 11 114 11 131 0 24-22 24-22 24h-83c0 0-22 0-22-24 0-17-5-131 10-131 0 0 22-5 22-34 0-60-15-143-48-200-34-57-69-101-71-156-1-13-1-44-1-82h303c-1 38-1 69-1 82z m-354-82h-151c0 0-61-171 52-231 0 0 35-129-25-129-19 0-28-6-32-13h161c-4 7-13 13-32 13-59 0-25 129-25 129 113 60 52 231 52 231z m-102-112c-4 2-8 3-12 5-14 4-24 2-31-1-1 35 6 68 11 86h117c4-15 10-40 11-67 0-3 0-5 0-8-26-24-63-30-96-15z" horiz-adv-x="533" />
<glyph glyph-name="icon24" unicode="&#xe814;" d="m615 713c-10 15-26 40-42 37 0 0-1 0-1 0l0 0c-11-3-19-9-19-9l0 0-401-203c0 0 0 0 0 0-12-6-16-20-13-27 0-1 0-1 0-2l-54-25c-5-2-6-9-4-17l-49-23c-3 6-9 5-17 2-7-3-9-11-8-21 3-16 11-29 16-34 5-5 13-10 20-7 7 3 13 8 10 14 0 0 1 0 1 1l49 24c5-5 10-8 14-6l8 4 0 0 45 21c1-1 2-2 3-3 12-16 28-6 28-6s0 0 0 0c0 0 1 0 2 1l67 28c3-9 9-16 16-21v-16h-23c-4 0-8-4-8-8v-19c0-4 4-7 8-7h24l-145-421c-4-11 2-16 9-19 8-3 14-1 18 10l7 19 0 0 53 153h168c2 0 4 0 6 1l52-151c0 0 0 0 0 0l3-7 4-12c1-2 1-3 2-5 0 0 1-1 1-1 0 0 0-1 1-1 1-2 2-3 4-3 0-1 0-1 0-1 0 0 1 0 2 0 0 0 0 0 1 0 0 0 1 0 1 0 1 0 2 0 2 0 1 0 1 0 1 0 0 0 1 0 2 0 0 0 1 0 1 0 0 1 0 1 0 1l0 0c1 0 2 0 2 0 8 3 12 8 8 19l-4 11-141 407h18c5 0 8 3 8 7v19c0 5-3 8-8 8h-26v17c11 8 18 21 18 36 0 6-1 12-4 18l91 38c0-1 0-1 0-1l3 2 178 74c1 0 2 1 3 1l1 1c5 3 10 6 12 10 2 3 3 5 4 8 4 22-18 68-28 84z m-378-556l79 229 79-229h-158l0 0z" horiz-adv-x="650" />
<glyph glyph-name="icon28" unicode="&#xe815;" d="m609 242l-144 298c-13 30-45 51-82 45-38-6-55-34-54-68l3-25c-8-1-16-2-24-2-8 0-15 1-23 2l3 25c1 34-17 62-54 68-38 6-69-15-82-45l-144-298c-2-8-4-16-4-24 0-57 59-104 127-104 68 0 126 47 126 104l7 68c13-6 28-9 44-9 16 0 31 3 45 9l7-68c0-57 58-104 126-104 68 0 126 47 126 104 0 8-1 16-3 24z m-478-102c-52 0-95 35-95 78 0 43 43 78 95 78s94-35 94-78c0-43-42-78-94-78z m355 0c-52 0-95 35-95 78 0 43 43 78 95 78 52 0 95-35 95-78 0-43-43-78-95-78z" horiz-adv-x="617" />
<glyph glyph-name="icon30" unicode="&#xe816;" d="m221 583c-13 13-33 13-46 0-29-28-43-66-43-103 0-37 14-75 43-103 6-6 15-9 23-9 8 0 16 3 23 9 12 12 12 33 0 45-17 16-25 37-25 58 0 21 8 42 25 58 12 13 12 33 0 45z m168-244c-14 0-27 2-40 6v-301h80v301c-13-4-27-6-40-6h0z m-322 141c0 44 16 88 51 122 12 12 12 32 0 45-13 12-33 12-46 0-47-46-70-107-70-167 0-60 23-121 70-166 6-7 14-10 23-10 8 0 16 3 23 10 12 12 12 32 0 45-35 33-51 77-51 121z m322 93c-25 0-49-10-68-28-19-19-28-42-28-67 0-24 9-48 28-67 19-18 43-27 68-27 24 0 49 9 67 27 19 19 28 43 28 67 0 24-9 48-28 67-18 18-43 28-67 28z m174 10c-13-12-13-32 0-45 16-16 24-37 24-58 0-21-8-42-24-58-13-12-13-33 0-45 6-6 14-9 23-9 8 0 16 3 22 9 29 28 44 66 44 103 0 37-15 75-44 103-12 13-33 13-45 0z m149 64c-13 12-34 12-46 0-13-13-13-33 0-45v0c34-34 51-78 51-122 0-44-17-88-51-121-13-13-13-33 0-46 6-6 14-9 23-9 8 0 16 3 23 9 46 46 69 107 69 167 0 60-23 121-69 167z" horiz-adv-x="783" />
<glyph glyph-name="icon29" unicode="&#xe817;" d="m605 389c5 9 7 17 6 26 0 3-1 7-2 10-12 31-80 72-106 83-26 11-68 30-86 12 0 0 0 0-1-1 0 0 0 0 0 0-12-12-17-27-17-27s1 0 1 0l-56-105-73 36 57 111c0 0 0 0 0 0s6 5 12 24c0 0 0 0 0 1 0 1 1 3 1 5 7 23-37 48-61 62-24 15-97 46-130 38-25-6-30-37-30-37 0 0 0 0 0 0l-110-321c0-1 0-2 0-2 0 0-1 0-1 0s-14-29 13-45c0-1 1-1 2-2 1 0 2-1 3-2 13-7 28-14 43-21l-34-83c-3-8 2-17 9-23 9-6 28-13 40-14 10-1 19 1 22 8l37 90c13 1 23 9 29 22 0 0 0 0 0 0l18 35c1 0 2-1 3-2l68-33-20-39c-1 0-1 0-1 0-7-12-6-26-1-36l-46-79c-4-8 0-16 6-24 9-10 26-18 37-20 10-2 21-1 25 6l40 70c12-8 26-15 37-21l3-2c4-2 8-3 12-4 28-8 39 16 39 16h0c0 1 1 2 1 3l203 274c1 1 4 5 7 10l1 1z" horiz-adv-x="617" />
<glyph glyph-name="icon26" unicode="&#xe818;" d="m457 550c-51 51-135 51-186 0-39-38-49-94-29-141l-234-231-3-53 12-13 76 6 28 28-15 16 28 28 9-9c0 0 26 12 29 28 3 15 0 56 0 56l82 6 65 65c47-17 101-7 138 30 51 51 51 133 0 184z m-19-65c-13-13-34-13-47 0-13 13-13 33 0 46 13 13 34 13 47 0 14-13 14-33 0-46z" horiz-adv-x="500" />
<glyph glyph-name="icon27" unicode="&#xe819;" d="m81 704l-17-3c-11-3-22-13-23-25l-40-362c-1-12 7-23 18-27l13-3c12-4 21-16 21-27l0-250c0-11 9-20 21-20h7c11 0 21 9 21 20v680c0 11-9 19-21 17z m306 7c-7 0-13-6-13-12v-144c0 0 3-37-27-37 0 0-28-5-29 34v147c0 8-7 14-15 14-8 0-15-6-15-14v-142c1-44-29-39-29-39-23 0-27 21-28 32v149c0 6-5 12-12 12-7 0-12-6-12-12l0-173c0-37 31-67 72-76l0-443c0-11 10-20 21-20h8c11 0 21 9 21 20v444c40 9 70 39 70 75v173c0 6-6 12-12 12z" horiz-adv-x="400" />
<glyph glyph-name="icon21" unicode="&#xe81a;" d="m811 560c0 6-4 11-10 15l1-1-61 41-1 0c-8 4-22 7-31 7h-232c-14 0-25-9-25-20v-30h-14v77c0 19-14 35-31 35-17 0-32-16-32-35v-77h-8v-4-17-4h8v-72h-11v30c0 11-11 20-25 20h-231c-10 0-23-3-31-7l-1 0-61-41 1 1c-6-4-10-9-10-15 0-6 4-12 11-15l-1 1 60-38 1-1c8-3 21-6 31-6h232c13 0 24 9 24 20v26h11v-78h-8v-4-17-4h8v-282c-160-3-210-27-210-49h487c0 22-52 47-214 50v281h10v-30c0-11 11-20 25-20h231c10 0 24 3 32 7l0 0 61 38-1 0c7 3 10 8 10 14 1 6-3 12-10 15l1-1-61 41 0 0c-8 4-22 8-32 8h-231c-14 0-25-9-25-21v-26h-10v78h9v4 17 4h-9v72h14v-26c0-11 11-20 25-20h232c9 0 23 3 31 7l1 0 60 38-1-1c7 4 11 9 11 15z" horiz-adv-x="817" />
<glyph glyph-name="icon22" unicode="&#xe81b;" d="m377 320c0-14-11-25-24-25-14 0-26 11-26 25 0 14 12 25 26 25 5 0 11-3 15-6l215 209c-61 40-145 33-199-22l-42-42-42 42c-62 63-163 63-225 0-70-70-70-185 0-255 0 0 34-45 112-108l-143-138-10 10-34-68 65 37-9 9 144 140c37-29 84-61 142-95 189 110 266 213 266 213h2c69 70 69 185 0 255-5 5-9 8-13 12l-220-213c0-2 0-3 0-5z m370 307l-2 15-50-7 19 18 69 10-2 14-50-7 34 33-12 12-33-33 7 49-15 2-10-69-18-18 7 49-15 2-10-68-14-14 7 49-14 2-10-68-52-50c5-3 9-6 14-10l49 48 70 10-2 15-50-7 14 13 69 10z" horiz-adv-x="783" />
<glyph glyph-name="icon25" unicode="&#xe81c;" d="m744 625h-687c-28 0-50-22-50-49v-452c0-27 22-49 50-49h687c27 0 49 22 49 49v452c0 27-22 49-49 49z m-602-151c-9 8-15 19-15 32 0 23 19 41 43 41 24 0 43-19 43-41 0-13-5-24-14-31 33-8 57-32 57-82h-170c0 50 23 73 56 81z m573-302h-629v41h629v-41l0 0z m0 74h-629v41h629v-41l0 0z m0 73h-629v41h629v-41l0 0z m0 74h-398v41h398v-41l0 0z m0 74h-398v41h398v-41l0 0z" horiz-adv-x="800" />
<glyph glyph-name="icon23" unicode="&#xe81d;" d="m274 521h-114c-9 0-17-7-17-17v-308c0-10 8-17 17-17h114c10 0 17 7 17 17v308c0 10-7 17-17 17z m485-194v46h-451v-46h451z m-713 135v-89h-19c-13 0-24-10-24-23 0-13 11-23 24-23h19v-89c0-10 7-17 17-17h63v258h-63c-10 0-17-7-17-17z m994-89h-19v89c0 10-7 17-17 17h-63v-258h63c10 0 17 7 17 17v89h19c13 0 24 10 24 23 0 13-11 23-24 23z m-133 148h-114c-10 0-17-7-17-17v-308c0-10 7-17 17-17h114c9 0 17 7 17 17v308c0 10-8 17-17 17z" horiz-adv-x="1067" />
<glyph glyph-name="icon33" unicode="&#xe81e;" d="m576 387l-568 245 105-493 140 75 76-146 1 188-316 366 372-336 190 101z" horiz-adv-x="583" />
<glyph glyph-name="icon34" unicode="&#xe81f;" d="m638 185c15-22 21-51 15-79-2-6-6-11-11-14-4-3-11-5-17-3-12 2-20 15-17 27 3 16 0 32-8 44-9 13-22 23-38 26-12 3-20 15-18 27 3 12 15 20 28 18 28-7 52-24 66-46z m79 50c-24 36-62 64-108 73-12 3-25-5-27-17-3-12 5-25 17-27v0c34-7 61-27 78-54 18-27 25-60 18-93-3-12 5-24 17-27 7-1 13 0 18 3 5 3 8 8 10 14 10 46 0 91-23 128z m-228-55c-15 26-48 35-75 20l-35-19c-7-4-13-9-17-16-44 32-98 81-135 145-36 65-50 136-55 190 8 0 16 2 23 6l35 20c26 14 36 47 21 73l-79 140c-15 26-49 35-75 21l-51-29c-52-38-76-199 81-476 159-279 308-341 369-317l51 28c27 15 36 48 21 74l-79 140z" horiz-adv-x="750" />
<glyph glyph-name="icon39" unicode="&#xe820;" d="m1040 159l-2-26h-876c0 0-5 166-153 240 0 0 206 113 605-49 0 0-81 115-457 115l36 80h24l11 28h34l8 20h202l343-163 37 44h-18c-4 0-8 3-8 8 0 4 4 8 8 8h99c5 0 9-4 9-8 0-5-4-8-9-8h-55l4-75 9-4 5-14 14-6 6-14 18-8 37-81 34-16c0 0 41-11 35-71z" horiz-adv-x="1050" />
<glyph glyph-name="icon32" unicode="&#xe821;" d="m629 204h40c16 0 29 13 29 28 0 16-13 29-29 29h-40v40c0 16-13 28-29 28-16 0-29-12-29-28v-40l-40 0c-16 0-29-13-29-29s13-28 29-28l40 0v-40c0-16 13-28 29-28 16 0 29 12 29 28v40z m-283 225h-146c-109 0-198-88-198-197 0-108 89-196 198-196 68 0 128 35 164 86h0c8 12 21 20 36 20 15 0 28-8 36-20h0c36-51 96-86 164-86 110 0 198 88 198 196 0 109-88 197-198 197h-145-41v78c0 47-39 85-87 85-15 0-30 6-41 17-11 11-17 26-17 41 0 8-6 14-14 14-8 0-14-6-14-14 0-23 9-44 26-60 16-16 37-25 60-25 33 0 59-26 59-58v-78l-40 0 0 0z m-232-243c-27 0-48 21-48 46 0 26 21 47 48 47 26 0 47-21 47-47 0-25-21-46-47-46z m86 85c-26 0-47 21-47 47 0 26 21 47 47 47 26 0 47-21 47-47 0-26-21-47-47-47z m87 8c26 0 47-21 47-47s-21-46-47-46c-26 0-47 21-47 46 0 26 21 47 47 47z m-87-179c-26 0-47 21-47 47 0 26 21 47 47 47 26 0 47-21 47-47 0-26-21-47-47-47z m400 3c-73 0-131 58-131 129 0 72 59 130 131 130 73 0 131-58 131-130 0-71-58-129-131-129z" horiz-adv-x="800" />
<glyph glyph-name="icon35" unicode="&#xe822;" d="m240 431c-1 0-1 0-2 0l-191 14v-268c0-23 19-46 43-51l232-32v436l-31-68c-6-18-28-31-51-31z m-184 157l-55-105c-3-10 6-18 19-18l220-17c13 0 27 8 30 18l63 140h-247c-14 0-27-8-30-18z m371-157c-23 0-46 13-51 31l-31 68v-436l232 32c24 5 43 28 43 51v268l-191-14c-1 0-1 0-2 0z m239 52l-55 105c-3 10-16 19-30 19h-248l64-141c3-10 16-18 30-18l220 17c13 0 22 8 19 18z" horiz-adv-x="667" />
<glyph glyph-name="icon36" unicode="&#xe823;" d="m444 569h-321c-20 0-36-17-36-37v-364c0-20 16-37 36-37h321c20 0 36 17 36 37v364c0 20-16 37-36 37z m-160-142c11 0 21-2 29-7l-17-15c-4 1-8 2-12 2-10 0-19-4-27-9l-23 7c13 14 30 22 50 22z m-66-75l23-8c5-11 13-20 24-24l5-24c-27 6-48 28-52 56z m107-43l-5 23c6 8 10 18 10 29l19 16c1-5 2-10 2-16 0-21-10-40-26-52z m77 133l-87-75c0-2 1-4 1-6 0-10-5-18-12-24l24-114c1-4-2-7-6-8l-12-3c-1 0-1 0-2 0-1 0-3 1-4 1-1 1-3 3-3 5l-24 112c-12 3-22 13-24 25l-107 35c-2 1-3 2-4 4-1 2-1 4-1 6l4 11c1 3 4 5 7 5 1 0 2 0 3 0l105-35c6 7 14 11 24 11 6 0 10-1 15-4l84 74c2 2 4 2 5 2 2 0 4-1 6-2l8-10c1-1 2-3 2-5 0-2-1-4-2-5z m127 205h-491c-21 0-37-16-37-36v-522c0-20 16-36 37-36h491c20 0 37 16 37 36v522c0 20-17 36-37 36z m-14-257c0-6-4-11-10-11 0 0 0 1 0 1v-59c0 0 0 0 0 0 6 0 10-5 10-10v-118c0-6-4-10-10-10 0 0 0 0 0 0v-15c0-33-28-61-61-61h-321c-33 0-61 28-61 61v364c0 34 28 61 61 61h321c33 0 61-27 61-61v-15c0 0 0 0 0 0 6 0 10-4 10-10v-117z" horiz-adv-x="567" />
<glyph glyph-name="icon37" unicode="&#xe824;" d="m717 567l-213 63c-41 12-65-31-65-31s-79-21-78-87c-164 54-290 77-290 77-121-113-56-291 27-370 51-49 53-87 48-109l-110-21c0-12 10-21 22-21h850c11 0 21 9 21 21l-92 21 12 168c-135 98-299 169-442 219 83-20 254-62 342-102 0 0 27 87-3 112 12 47-29 60-29 60z m-607-96c-14 0-25 11-25 24 0 13 11 24 25 24 13 0 24-11 24-24 0-13-11-24-24-24z" horiz-adv-x="933" />
<glyph glyph-name="icon40" unicode="&#xe825;" d="m135 173c13 10 28 18 45 24 20 6 43 10 66 10 2 0 4 0 6 0 25-1 52-5 79-14 13-4 26-9 40-15l5-3c4-1 7-3 11-4 6-3 11-5 16-7 23-8 45-13 65-14 3 0 6 0 9 0 18 0 35 3 51 10 8 4 17 9 23 15 2 1 3 2 4 3 0 1 1 2 1 2l3 3c2 2 3 3 5 5 6 6 12 11 19 16 25 16 52 27 83 31 9 1 19 2 29 2 15 0 31-2 47-5 21-4 42-11 65-21 9-4 19-8 29-14 8-4 17-8 25-12 20-8 38-13 55-16 10-1 19-2 28-2 11 0 23 1 33 4 14 3 31 10 47 23 1 1 2 2 3 4 48 56 30 151 30 151l-209 9h2l8 81c9 87-52 115-94 123l2 71-20 0c-42 1-74-42-89-68l-312-3c0 0-58 4-64-55l-24-123-251 11c0 0 17-73 52-134 22-38 51-67 77-88z m590 317c30-1 53-26 52-55-1-28-27-51-57-49-30 1-54 25-52 54 1 29 26 51 57 50z m-162 7c30-1 53-26 52-55-2-28-27-51-57-49-31 1-54 25-53 54 2 29 27 51 58 50z m-149 6c30-1 54-25 52-54-1-29-27-51-57-50-30 1-54 26-52 54 1 29 27 52 57 50z m142-416c-28-15-60-21-91-20-31 1-60 8-87 18-6 2-13 5-19 8-6 2-13 6-18 8-10 5-21 10-32 14-21 8-41 13-60 15-39 4-71-4-91-14-21-9-32-18-35-16-3 2 2 17 23 33 10 9 24 17 42 23 18 6 40 10 63 9 23 0 48-5 73-12 12-4 24-9 36-15 7-2 12-5 17-7 6-3 12-5 18-7 23-8 47-14 72-16 24-1 49 3 71 13 11 5 22 11 30 19 2 1 4 3 5 5 1 0 0 0 1 1l1 1 2 2c1 2 3 3 4 4 5 5 11 10 17 14 23 15 48 23 71 27 24 3 47 1 68-3 21-4 41-11 60-19 9-4 18-9 27-13 9-5 18-9 28-13 18-8 38-14 60-18 22-3 46-4 71 2 25 6 50 19 70 41-19-23-44-37-69-44-25-8-50-9-73-6-23 2-44 7-64 14-10 3-20 7-29 11-9 4-18 8-28 11-18 6-37 11-56 13-20 2-40 2-60-2-20-4-39-13-56-26-4-4-8-8-12-12l-2-2-1-2-1-2c-3-3-6-6-8-9-11-10-23-20-38-28z" horiz-adv-x="1067" />
<glyph glyph-name="icon31" unicode="&#xe826;" d="m548 266c-1 21-9 37-15 53-2 4-5 8-11 9-9-20-14-45-29-65-7-8-15-15-25-23-7-4-15-8-23-13-1 0-6-4-6-6 0-2 8-4 12-5 14-2 29-4 43-3-5-15-11-22-22-32-7-6-12-8-16-11-8-5-16-9-25-13-4-1-8-2-12-3-10-3-19-6-31-8-6 0-14-2-20-2-14 1-36 9-42 21-8 17-10 38-11 61 0 7 0 14 0 22 1 7 1 15 1 22 3 39 0 89 2 127 33 5 75 1 108 12 4 1 9 3 12 6 6 4 6 11 7 21 1 12 0 22-8 28-14 6-32 10-49 12-21 3-44 7-68 7-1 17 1 31 0 49 24 14 41 38 45 66 0 3 1 6 1 9 0 3 0 6 0 9-2 19-9 37-21 52-4 4-8 8-13 13-2 1-4 2-6 3-15 10-32 16-51 16-50 0-91-40-91-90 0-35 20-65 49-80 1-16 1-29 0-46-28-6-63-6-90-12-8-2-20-3-26-7-8-6-9-18-9-31 0-5 0-13 2-17 1-4 7-8 11-10 9-3 20-3 31-3 28-2 58-5 83-5 2-46 1-79 2-124 0-24-1-47-6-73-4-18-5-43-19-51-10-5-21-4-36-3-20 1-37 6-53 10-8 3-16 5-23 9-9 5-17 13-23 20-7 7-13 17-17 26 15-4 27-3 42 0 4 1 9 2 8 7-1 3-6 3-10 5-8 4-19 12-26 19-8 7-17 16-22 24-10 15-15 32-20 49-2 5 0 14-8 16-4-3-5-9-7-14-6-15-13-31-14-49-2-35 7-70 18-99 2-4 4-10 9-10 7 7-1 22 5 29 4-11 8-19 14-28 3-4 7-9 11-12 22-24 52-41 81-56 21-8 46-12 66-22 10-9 21-19 30-30 4-6 9-11 13-17 5-5 9-12 14-17 4-4 10-9 17-7 6 2 13 9 17 15 5 7 9 14 12 20 8 13 19 26 31 34 15 10 34 18 53 23 20 5 41 11 58 19 12 5 22 12 32 19 8 9 14 17 19 27 5 10 8 22 12 33 5-8 4-19 5-28 4 0 7 3 9 6 2 3 5 7 6 10 7 14 10 32 12 50 0 12 1 26 1 37z m-238 323c-7 7-23 8-39 8-13 0-28-2-33-13-6 7-9 16-9 26 0 25 21 45 46 45 25 0 45-20 45-45 0-9-3-18-8-25 0 1-1 2-2 4z" horiz-adv-x="550" />
<glyph glyph-name="icon38" unicode="&#xe827;" d="m1060 183l-181 31c30 147-41 277-41 277-43-97-187-151-248-170 28 155 306 227 306 227-486 329-710-183-710-183 129 29 265-39 346-91l-525 91c0 0 19-151 145-250 0 0 76-66 279-73h532c47 0 51 41 51 41l9 51c40 0 37 49 37 49z m-469 81c-3 15-4 30-3 44 84-14 153-48 202-79l-199 35z" horiz-adv-x="1067" />
<glyph glyph-name="icon48" unicode="&#xe828;" d="m1008 464l-88 11c-6 0-11-5-11-11v-20l-89 113c-1 1-22 24-58 33-50 12-143 25-252 26 0 0 0 0-1 0-108-1-201-14-250-26-37-9-57-32-59-34l-89-112v20c0 6-5 11-10 11l-89-11c-6 0-10-4-10-10v-41c0-6 4-10 10-10h61c-31-20-35-49-35-49v-255c0-8 7-15 15-15h128c9 0 16 7 16 15v45h626v-45c0-8 7-15 16-15h128c8 0 15 7 15 15v255c0 0-4 29-35 49h61c6 0 10 4 10 10v41c0 6-4 10-10 10z m-784 72c1 1 16 17 42 24 35 8 93 17 163 22-1-1-1-3-1-4v-10c0-8 7-15 15-15h134c8 0 15 7 15 15v10c0 1 0 3-1 4 71-5 128-14 163-22 26-6 41-23 41-23v0l90-112c-81 21-216 48-375 50h0c-159-2-294-29-374-50l88 111z m20-298c-19 0-27 16-45 20-14 4-24-7-40-7-39 0-70 31-70 69 0 38 31 68 70 68 25 0 51-11 59-32 3-9 5-27 27-30 27-2 46-16 46-41 0-26-21-47-47-47z m424 10h-316c-17 0-31 14-31 31 0 16 14 30 31 30h316c17 0 31-14 31-30 0-17-14-31-31-31z m193 3c-16 0-25 11-40 7-18-4-26-20-45-20-26 0-47 21-47 47 0 25 20 39 46 41 23 3 24 21 28 30 7 21 34 32 58 32 39 0 70-30 70-68s-31-69-70-69z" horiz-adv-x="1017" />
<glyph glyph-name="icon46" unicode="&#xe829;" d="m1016 465l-89 10c-5 0-10-5-10-10v-21l-90 113c-1 1-22 25-58 33-50 12-143 25-252 27 0 0-1 0-1 0-109-2-201-15-252-27-36-8-57-32-58-33l-89-113v21c0 5-5 10-11 10l-88-10c-6 0-11-5-11-10v-42c0-6 5-10 11-10h61c-31-20-36-49-36-49v-255c0-9 7-16 16-16h128c9 0 16 7 16 16v45h628v-45c0-9 7-16 15-16h128c9 0 16 7 16 16v255c0 0-4 29-36 49h62c6 0 10 4 10 10v42c0 5-4 10-10 10z m-840-214c-38 0-69 31-69 69 0 38 31 68 69 68s70-30 70-68c0-38-31-69-70-69z m80-58c-17 0-30 13-30 29 0 17 13 30 30 30 16 0 29-13 29-30 0-16-13-29-29-29z m260 282c-159-2-294-29-375-50l90 112c0 0 15 17 41 23 35 9 93 18 163 22 0-1-1-2-1-4v-9c0-9 7-16 16-16h134c8 0 15 7 15 16v9c0 2 0 3-1 4 71-4 128-13 164-22 26-6 41-23 41-23 0 0 0 0 0 0l89-112c-81 21-216 48-375 50h-1z m262-282c-16 0-30 13-30 29 0 17 14 30 30 30 16 0 30-13 30-30 0-16-14-29-30-29z m79 58c-38 0-70 31-70 69 0 38 32 68 70 68 39 0 70-30 70-68 0-38-31-69-70-69z" horiz-adv-x="1033" />
<glyph glyph-name="icon45" unicode="&#xe82a;" d="m1007 465l-89 10c-6 0-10-5-10-10v-21l-90 113c-1 1-22 24-58 33-50 12-142 25-251 26-1 0-1 0-1 0-109-1-201-14-251-26-37-9-57-32-59-34l-89-112v21c0 5-5 10-10 10l-89-10c-5 0-10-5-10-11v-41c0-6 5-10 10-10h62c-32-20-36-49-36-49v-255c0-8 7-15 15-15h128c9 0 16 7 16 15v45h627v-45c0-8 7-15 15-15h128c9 0 16 7 16 15v255c0 0-5 29-36 49h62c5 0 10 4 10 10v42c0 5-5 10-10 10z m-885-287c-16 0-29 13-29 29 0 16 13 30 29 30 17 0 30-14 30-30 0-16-13-29-30-29z m-20 103c-25 2-24 19-24 19v30c0 0-4 45 22 42l138-20c0 0 76-10 76-86l-212 15z m406 194c-159-2-293-29-374-50l89 112c0 0 15 16 41 23 35 8 93 17 163 22-1-1-1-3-1-4v-10c0-8 7-15 16-15h133c9 0 16 7 16 15v10c0 1-1 3-1 4 70-5 127-14 163-22 25-6 41-23 41-23s0 0 0 0l89-112c-81 21-215 48-374 50h-1z m386-297c-16 0-29 13-29 29 0 16 13 30 29 30 17 0 30-14 30-30 0-16-13-29-30-29z m45 152v-30c0 0 1-17-24-19l-212-15c0 76 76 86 76 86l138 20c26 3 22-42 22-42z" horiz-adv-x="1017" />
<glyph glyph-name="icon47" unicode="&#xe82b;" d="m1006 465l-88 10c-6 0-10-5-10-10v-21l-90 113c-1 1-22 24-58 33-50 12-143 25-252 26 0 0 0 0 0 0-109-1-201-14-251-26-37-9-57-32-59-34l-89-112v20c0 6-5 11-10 11l-89-11c-5 0-10-4-10-10v-41c0-6 5-10 10-10h62c-32-20-36-49-36-49v-255c0-8 7-15 15-15h128c9 0 16 7 16 15v45h627v-45c0-8 7-15 15-15h128c9 0 16 7 16 15v255c0 0-5 29-36 49h61c6 0 11 4 11 10v41c0 6-5 11-11 11z m-783 72c0 0 15 16 41 23 35 8 93 17 163 22 0-1-1-3-1-4v-10c0-8 7-15 16-15h133c9 0 16 7 16 15v10c0 1-1 3-1 4 70-5 127-14 163-22 25-6 40-23 41-23 0 0 0 0 0 0l89-112c-81 21-215 48-374 50h-1c-159-2-293-29-374-50l89 112z m-54-286c-39 0-70 31-70 69 0 38 31 68 70 68 38 0 69-30 69-68 0-38-31-69-69-69z m508 0h-338c-26 0-46 21-46 46s20 46 46 46h339c25 0 46-21 46-46 0-25-21-46-47-46z m171 0c-38 0-70 31-70 69 0 38 32 68 70 68 38 0 70-30 70-68 0-38-32-69-70-69z" horiz-adv-x="1017" />
<glyph glyph-name="icon50" unicode="&#xe82c;" d="m975-12h-45v450h-38v99h-45v97h-33l-14 120-14-120h-33v-97h-46v-99h-37v-450h-44v450h-234v314h-315v-764h-35c-23 0-42-19-42-42h1017c0 23-19 42-42 42z m-720 688h56v-56h-56v56z m0-89h56v-56h-56v56z m0-90h56v-56h-56v56z m0-93h55v-56h-55v56z m0-90h55v-56h-55v56z m0-90h55v-56h-55v56z m-98 452h57v-56h-57v56z m0-89h57v-56h-57v56z m0-90h57v-56h-57v56z m0-93h57v-56h-57v56z m0-90h57v-56h-57v56z m0-90h57v-56h-57v56z m290-131h-55v56h55v-56z m0 90h-55v56h55v-56z m0 90h-55v56h55v-56z m98-180h-57v56h57v-56l0 0z m0 90h-57v56h57v-56l0 0z m0 90h-57v56h57v-56l0 0z m234-138h-56v56h56v-56z m0 90h-56v56h56v-56z m0 90h-56v56h56v-56z m98-180h-57v56h57v-56z m0 90h-57v56h57v-56z m0 90h-57v56h57v-56z" horiz-adv-x="1017" />
<glyph glyph-name="icon49" unicode="&#xe82d;" d="m756-13h-45v451h-38v100h-46v97h-33l-14 120 0 0-14-120h-33v-97h-46v-100h-37v-451h-44v768h-317v-768h-45c-23 0-42-19-42-42h796c0 23-19 42-42 42z m-155 384h57v-56h-57v56z m0-90h57v-56h-57v56z m0-90h57v-56h-57v56z m-98 180h57v-56h-57v56z m0-90h57v-56h-57v56z m0-90h57v-56h-57v56z m-235 488h57v-56h-57v56z m0-90h57v-57h-57v57z m0-91h57v-56h-57v56z m0-93h57v-56h-57v56z m0-90h57v-56h-57v56z m0-90h57v-56h-57v56z m-98 454h57v-56h-57v56z m0-90h57v-57h-57v57z m0-91h57v-56h-57v56z m0-93h57v-56h-57v56z m0-90h57v-56h-57v56z m0-90h57v-56h-57v56z" horiz-adv-x="800" />
<glyph glyph-name="icon41" unicode="&#xe82e;" d="m248-115c0 77 37 103 37 103l74 58-25 229-334-110c0 80 72 121 72 121l262 173v56c0 0 13 300 74 300 62 0 75-300 75-300v-56l262-173c0 0 72-41 72-121l-334 110-25-229 73-58c0 0 38-26 38-103l-161 73-160-73z" horiz-adv-x="817" />
<glyph glyph-name="icon42" unicode="&#xe82f;" d="m569 815c0-77-38-103-38-103l-73-58 25-229 334 110c0-80-72-121-72-121l-262-173v-56c0 0-13-300-75-300-61 0-74 300-74 300v56l-262 173c0 0-72 41-72 121l334-110 25 229-74 58c0 0-37 26-37 103l160-73 161 73z" horiz-adv-x="817" />
<glyph glyph-name="icon43" unicode="&#xe830;" d="m1000 399l-83-175 0 0c-6-12-15-22-27-29-9-5-20-8-32-8l-584 0c-156 0-274 28-274 64 0 35 131 64 274 64l163 0 185 162c0 0 40 37 121 37l-111-199 221 0 66 60c-1 0 18 24 81 24z" horiz-adv-x="1000" />
<glyph glyph-name="icon44" unicode="&#xe831;" d="m82 375l65-60 221 0-110 199c80 0 121-37 121-37l184-162 163 0c143 0 274-29 274-64 0-36-118-64-274-64l-584 0c-12 0-23 3-33 8-11 7-20 17-25 29l-1 0-83 175c63 0 82-24 82-24z" horiz-adv-x="1000" />
<glyph glyph-name="icon56" unicode="&#xe832;" d="m465 566h-105v232c0 3 0 5 0 7h5c12 0 22 10 22 23 1 12-10 22-22 22h-213c-13 0-23-10-23-22 0-13 10-23 23-23h5c-1-2-1-5-1-7v-232h-104c-28 0-50-22-50-49v-578c0-26 22-48 50-48h26v-23c0-10 8-18 18-18h53c10 0 18 8 18 18v23h182v-23c0-10 9-18 19-18h53c10 0 18 8 18 18v23h26c27 0 49 22 49 48v578c0 27-22 49-49 49z m-396-633c-18 0-32 14-32 32v57l89-89h-57z m-32 509v57c0 17 14 32 32 32h57l-89-89z m292 124h-142v232c0 0 0 4 2 7h139c1-2 2-4 2-7v-232h-1z m151-601c0-18-14-32-32-32h-57l89 88v-56h0z m0 477l-89 89h57c18 0 32-15 32-32v-57l0 0z" horiz-adv-x="517" />
<glyph glyph-name="icon60" unicode="&#xe833;" d="m731 545h-130v27c0 65-52 99-101 99h-200c-65 0-100-51-100-99v-27h-131c-37 0-67-30-67-66v-127c134-33 455-91 796-1v128c0 36-30 66-67 66z m-197 0h-268v27c0 0 0 33 34 33h200c0 0 34 0 34-33v-27h0z m-92-277c2-5 3-10 3-15 0-25-20-45-45-45-25 0-44 20-44 45 0 5 1 11 3 16-143 5-262 26-336 43l-21-217c0-37 30-66 67-66h662c37 0 67 29 67 66l-20 216c-117-29-232-41-336-43z" horiz-adv-x="800" />
<glyph glyph-name="icon58" unicode="&#xe834;" d="m731 574h-35c-4 10-14 18-27 18h-19c-12 0-22-8-27-18h-47v27c0 64-52 99-101 99h-150c-65 0-100-51-100-99v-27h-48c-4 10-15 18-27 18h-19c-12 0-23-8-27-18h-35c-36 0-66-30-66-66v-442c0-36 30-66 66-66h662c37 0 66 30 66 66v442c0 36-29 66-66 66z m-642-527c-19 0-35 16-35 35v61l98-96-63 0 0 0z m-35 386v61c0 20 16 35 35 35h63l-98-96z m455 141h-218v27c0 0 0 33 34 33h150c0 0 34 0 34-33l0-27 0 0z m237-492c0-19-16-35-35-35h-62l97 96v-61z m0 351l-97 96h62c19 0 35-15 35-35v-61z" horiz-adv-x="800" />
<glyph glyph-name="icon59" unicode="&#xe835;" d="m731 574h-35c-4 10-14 18-27 18h-19c-12 0-22-8-27-18h-48v27c0 64-51 99-100 99h-150c-65 0-100-51-100-99v-27h-48c-4 10-15 18-27 18h-19c-13 0-23-8-27-18h-34c-37 0-67-30-67-66v-442c0-36 30-66 67-66h661c37 0 67 30 67 66v442c0 36-30 66-67 66z m-440 27c0 0 0 33 34 33h150c0 0 34 0 34-33v-27h-218v27z m417-514h-616c-6 0-12 5-12 11 0 7 6 12 12 12h616c6 0 12-5 12-12 0-6-6-11-12-11z m0 73h-616c-6 0-12 5-12 11 0 7 6 12 12 12h616c6 0 12-5 12-12 0-6-6-11-12-11z m0 73h-616c-6 0-12 5-12 11 0 7 6 12 12 12h616c6 0 12-5 12-12s-6-11-12-11z m0 73h-616c-6 0-12 5-12 11 0 7 6 12 12 12h616c6 0 12-5 12-12 0-6-6-11-12-11z m0 72h-616c-6 0-12 6-12 12 0 7 6 12 12 12h616c6 0 12-5 12-12 0-6-6-12-12-12z m0 73h-616c-6 0-12 6-12 12 0 7 6 12 12 12h616c6 0 12-5 12-12 0-6-6-12-12-12z" horiz-adv-x="800" />
<glyph glyph-name="icon57" unicode="&#xe836;" d="m731 574h-131v27c0 64-51 99-100 99h-200c-65 0-100-51-100-99v-27h-131c-37 0-66-30-66-66v-191h794v191c0 36-30 66-66 66z m-197 0h-267v27c0 0 0 33 33 33h200c0 0 34 0 34-33v-27h0z m-134-356c-37 0-67 24-76 58h-321v-210c0-36 30-66 66-66h662c36 0 66 30 66 66v210h-321c-9-34-39-58-76-58z" horiz-adv-x="800" />
<glyph glyph-name="icon51" unicode="&#xe837;" d="m864 239c0 0 39 40 130 34 0 0-39 69-137-2 0 0 24 61 72 64 0 0-84 54-110-58-7 36-76 82-151 27 0 0 82 23 136-51 0 0-105 56-144-37 0 0 88 39 136-1 0 0-110-34-76-94 0 0 51 63 95 71 0 0-1-12-5-32-8-41-27-112-66-169h-117v447h-232v312h-313v-759h-34c-24 0-42-18-42-41h837c0 23-19 41-42 41h-28c27 55 49 123 56 169 3 16 4 29 2 38l1 0c0 0 48-59 41-117 0 0 64 50-20 129 0 0 96-20 116-57 0 0 8 90-105 86z m-646-69h-56v55h56v-55z m0 89h-56v56h56v-56z m0 89h-56v56h56v-56z m0 93h-56v55h56v-55z m0 89h-56v56h56v-56z m0 89h-56v56h56v-56z m96-449h-55v55h55v-55z m0 89h-55v56h55v-56z m0 89h-55v56h55v-56z m1 93h-56v55h56v-55z m0 89h-56v56h56v-56z m0 89h-56v56h56v-56z m135-523h-55v55h55v-55z m0 89h-55v56h55v-56z m0 89h-55v56h55v-56z m97-178h-56v55h56v-55z m0 89h-56v56h56v-56z m0 89h-56v56h56v-56z" horiz-adv-x="1000" />
<glyph glyph-name="icon54" unicode="&#xe838;" d="m258 341c-22 0-40 18-40 41h-215v-443c0-26 22-48 49-48h26v-23c0-10 8-18 18-18h53c10 0 18 8 18 18v23h182v-23c0-10 9-18 19-18h53c10 0 18 8 18 18v23h26c27 0 49 22 49 48v443h-215c0-23-18-41-41-41z m207 225h-104v232c0 3-1 5-1 7h5c12 0 23 10 23 23 0 12-10 22-23 22h-213c-13 0-23-10-23-22 0-13 10-23 23-23h5c0-2-1-5-1-7v-232h-104c-28 0-50-22-50-49v-99h512v99c0 27-22 49-49 49z m-135 0h-143v232c0 0 0 4 2 7h139c1-2 2-4 2-7l0-232 0 0z" horiz-adv-x="517" />
<glyph glyph-name="icon52" unicode="&#xe839;" d="m914-48c0 23-18 41-41 41h-28c27 54 48 122 56 168 2 16 3 29 2 38l0 0c0 0 48-59 41-117 0 0 63 50-20 128 0 0 94-20 114-56 0 0 8 89-103 85 0 0 38 39 129 34 0 0-39 68-136-2 0 0 24 60 71 63 0 0-83 54-108-57-8 35-76 81-149 26 0 0 80 24 134-50 0 0-104 56-143-37 0 0 87 39 134-1 0 0-108-33-74-93 0 0 50 63 93 70 0 0-1-12-4-31-8-41-27-112-66-168h-120v444h-36v98h-46v95h-32l-13 118-14-118h-32v-95h-45v-98h-37v-444h-43v755h-310v-755h-44c-22 0-41-18-41-41h911l0 0z m-325 419h55v-56h-55v56z m0-89h55v-55h-55v55z m0-89h55v-55h-55v55z m-96 178h56v-56h-56v56z m0-89h56v-55h-56v55z m0-89h56v-55h-56v55z m-230 480h56v-55h-56v55z m0-89h56v-55h-56v55z m0-88h56v-55h-56v55z m0-92h56v-55h-56v55z m0-88h56v-56h-56v56z m0-89h56v-55h-56v55z m-95 446h55v-55h-55v55z m0-89h55v-55h-55v55z m0-88h55v-55h-55v55z m0-92h55v-55h-55v55z m0-88h55v-56h-55v56z m0-89h55v-55h-55v55z" horiz-adv-x="1067" />
<glyph glyph-name="icon53" unicode="&#xe83a;" d="m465 566h-105v232c0 3 0 5 0 7h5c12 0 23 10 23 23 0 12-11 22-23 22h-213c-13 0-23-10-23-22 0-13 10-23 23-23h5c0-2-1-5-1-7v-232h-104c-28 0-50-22-50-49v-104h512v104c0 27-22 49-49 49z m-135 0h-143v232c0 0 0 4 2 7h139c1-2 2-4 2-7v-232z m125-357c0-30-24-54-54-54h-285c-30 0-55 24-55 54v171h-59v-337h512v337h-59v-171h0l0 0z m-453-270c0-26 22-48 50-48h26v-23c0-10 8-18 18-18h53c10 0 18 8 18 18v23h182v-23c0-10 9-18 19-18h53c10 0 18 8 18 18v23h26c27 0 49 22 49 48v71h-512v-71z" horiz-adv-x="517" />
<glyph glyph-name="icon55" unicode="&#xe83b;" d="m465 566h-105v232c0 3 0 5 0 7h5c12 0 23 10 23 23 0 12-11 22-23 22h-213c-13 0-23-10-23-22 0-13 10-23 23-23h5c0-2-1-5-1-7v-232h-104c-27 0-49-22-49-49v-578c0-26 22-48 49-48h26v-23c0-10 8-18 18-18h53c10 0 18 8 18 18v23h182v-23c0-10 8-18 19-18h53c10 0 18 8 18 18v23h26c27 0 49 22 49 48v578c0 27-22 49-49 49z m-278 232c0 0 0 4 2 7h139c1-2 2-4 2-7v-232h-143v232z m243-826h-343c-5 0-9 4-9 9 0 5 4 8 9 8h343c5 0 9-3 9-8 0-5-4-9-9-9z m0 55h-343c-5 0-9 4-9 9 0 5 4 9 9 9h343c5 0 9-4 9-9 0-5-4-9-9-9z m0 55h-343c-5 0-9 4-9 9 0 5 4 9 9 9h343c5 0 9-4 9-9 0-5-4-9-9-9z m0 55h-343c-5 0-9 4-9 9 0 5 4 9 9 9h343c5 0 9-4 9-9 0-5-4-9-9-9z m0 55h-343c-5 0-9 4-9 9 0 5 4 9 9 9h343c5 0 9-4 9-9 0-5-4-9-9-9z m0 55h-343c-5 0-9 4-9 9 0 5 4 9 9 9h343c5 0 9-4 9-9 0-5-4-9-9-9z m0 55h-343c-5 0-9 4-9 9 0 5 4 9 9 9h343c5 0 9-4 9-9 0-5-4-9-9-9z m0 56h-343c-5 0-9 3-9 8 0 5 4 9 9 9h343c5 0 9-4 9-9 0-5-4-8-9-8z m0 55h-343c-5 0-9 3-9 8s4 9 9 9h343c5 0 9-4 9-9 0-5-4-8-9-8z m0 55h-343c-5 0-9 4-9 8 0 5 4 9 9 9h343c5 0 9-4 9-9 0-4-4-8-9-8z" horiz-adv-x="517" />
<glyph glyph-name="icon70" unicode="&#xe83c;" d="m238 213h-53v91c0 9-8 17-17 17-9 0-17-8-17-17v-108c0-9 8-16 17-16h70c10 0 17 7 17 16 0 9-7 17-17 17z m118 12c0 97-80 176-178 176-98 0-178-79-178-176 0-97 80-176 178-176 98 0 178 79 178 176z m-178-139c-78 0-141 62-141 139 0 77 63 139 141 139 77 0 140-62 140-139 0-77-63-139-140-139z m363 139c-35 0-64 23-73 55h-77c5-18 8-36 8-55 0-96-63-177-149-206h604c34 0 63 28 63 62v199h-304c-9-32-38-55-72-55z m312 337h-123v26c0 61-49 93-94 93h-190c-62 0-95-48-95-93v-26h-123c-35 0-63-28-63-63v-57c4 0 9 0 13 0 88 0 163-50 198-123h541v180c0 35-29 63-64 63z m-186 0h-253v26c0 0 0 31 32 31h190c0 0 31 0 31-31l0-26 0 0z" horiz-adv-x="917" />
<glyph glyph-name="icon69" unicode="&#xe83d;" d="m613 280h304v-199c0-35-29-63-64-63h-604c87 30 149 111 149 206 0 19-3 38-7 56h77c9-32 38-55 72-55 35 0 64 23 73 55z m304 219v-180h-541c-36 73-111 123-198 123-5 0-10 0-14 0v57c0 35 28 63 63 63h123v26c0 45 34 94 95 94h190c46 0 95-33 95-94v-26h123c35 0 64-28 64-63z m-250 89c0 31-32 31-32 31h-190c-31 0-31-31-31-31v-26h253v26z m-489-539c-98 0-178 79-178 175 0 97 80 176 178 176 98 0 177-79 177-176 0-96-79-175-177-175z m140 175c0 77-63 139-140 139-78 0-141-62-141-139s63-138 141-138c77 0 140 62 140 138z m-62-7l-56 22 16 23-27-12-7 55-23-55-23 16 12-26-56-8 55-22-16-23 27 12 8-56 23 56 23-16-13 26 57 8z" horiz-adv-x="917" />
<glyph glyph-name="icon68" unicode="&#xe83e;" d="m614 280h304v-199c0-35-28-63-63-63h-604c86 30 149 111 149 206 0 19-3 38-7 56h77c9-32 38-55 72-55 35 0 64 23 72 55z m304 219v-180h-540c-36 73-111 123-199 123-4 0-9 0-14 0v57c0 35 29 63 64 63h123v26c0 45 34 94 95 94h190c46 0 95-33 95-94v-26h123c35 0 63-28 63-63z m-249 89c0 31-32 31-32 31h-190c-31 0-31-31-31-31v-26h253v26z m-440-349h-100c-8 0-15-6-15-15 0-8 7-14 15-14h100c9 0 15 6 15 14 0 9-6 15-15 15z m-50-190c-98 0-177 79-177 175 0 97 79 176 177 176 98 0 178-79 178-176s-80-175-178-175z m141 175c0 77-63 139-141 139-77 0-140-62-140-139 0-76 63-138 140-138 78 0 141 62 141 138z" horiz-adv-x="917" />
<glyph glyph-name="icon67" unicode="&#xe83f;" d="m612 280h305v-199c0-34-29-62-64-62h-604c87 29 149 110 149 205 0 20-3 38-7 56h77c9-32 38-55 72-55 35 0 64 23 72 55z m305 219v-180h-541c-36 73-111 123-198 123-5 0-10 0-14 0v57c0 35 28 63 63 63h124v26c0 45 33 94 94 94h190c46 0 95-33 95-94v-26h123c35 0 64-28 64-63z m-250 89c0 31-32 31-32 31h-190c-31 0-31-31-31-31v-26h253v26z m-439-349h-35v35c0 8-7 15-15 15-9 0-16-7-16-15v-35h-34c-9 0-15-6-15-15s6-14 15-14h34v-35c0-8 7-15 16-15 8 0 15 7 15 15v35h35c8 0 15 6 15 14 0 9-7 15-15 15z m-50-190c-98 0-178 79-178 176 0 96 80 175 178 175 98 0 177-79 177-175 0-97-79-176-177-176z m140 176c0 76-63 138-140 138-78 0-141-62-141-138 0-77 63-139 141-139 77 0 140 62 140 139z" horiz-adv-x="917" />
<glyph glyph-name="icon66" unicode="&#xe840;" d="m614 280h305v-199c0-35-29-63-64-63h-604c86 30 149 111 149 206 0 19-3 38-7 56h77c9-32 37-55 72-55 35 0 63 23 72 55z m305 219v-180h-541c-36 73-111 123-199 123-4 0-9 0-13 0v57c0 35 28 63 63 63h123v26c0 45 34 94 95 94h190c46 0 95-33 95-94v-26h123c35 0 64-28 64-63z m-250 89c0 31-32 31-32 31h-190c-31 0-31-31-31-31v-26h253v26z m-444-318c-6 6-15 6-21 0l-25-24-24 24c-6 6-16 6-22 0-5-6-5-15 0-21l25-25-25-24c-5-6-5-15 0-21 6-6 16-6 22 0l24 24 25-24c6-6 15-6 21 0 6 6 6 15 0 21l-24 24 24 25c6 6 6 15 0 21z m-46-221c-98 0-177 79-177 175 0 97 79 176 177 176 98 0 178-79 178-176 0-96-80-175-178-175z m141 175c0 77-63 139-141 139-77 0-140-62-140-139 0-76 63-138 140-138 78 0 141 62 141 138z" horiz-adv-x="917" />
<glyph glyph-name="icon63" unicode="&#xe841;" d="m604 671h-557c-26 0-47-20-47-46v-550c0-26 21-46 47-46h557c25 0 46 20 46 46v550c0 26-21 46-46 46z m-18-464c0-20-17-37-38-37h-446c-21 0-37 17-37 37v364c0 20 16 36 37 36h446c21 0 38-16 38-36l0-364 0 0z m-92-2h-312c0 35 32 63 72 63 0 0 6 0 16-1-17 34-31 76-36 104-1 11-2 19-1 24l0 0c0 0-31-37-26-73 0 0-40 32 13 81 0 0-60-13-73-36 0 0-5 57 66 54 0 0-25 25-82 21 0 0 25 43 86-1 0 0-15 38-45 40 0 0 53 34 69-36 4 22 47 51 94 16 0 0-51 15-85-32 0 0 66 36 90-23 0 0-55 25-85 0 0 0 69-21 47-59 0 0-31 40-59 44 0 0 1-7 3-19 5-26 15-63 40-98 22 21 53 34 89 34 65 0 119-46 119-103z" horiz-adv-x="650" />
<glyph glyph-name="icon65" unicode="&#xe842;" d="m614 280h305v-199c0-35-29-63-64-63h-604c86 30 149 111 149 206 0 20-3 38-8 56h78c9-32 37-55 72-55 35 0 63 23 72 55z m305 219v-180h-541c-36 73-111 123-199 123-4 0-9 0-13 0v57c0 35 28 63 63 63h123v26c0 45 34 94 95 94h190c46 0 95-33 95-94v-26h123c35 0 64-28 64-63z m-250 89c0 31-32 31-32 31h-190c-31 0-31-31-31-31v-26h253v26l0 0z m-448-318l-60-59-24 24c-6 6-15 6-21 0-6-6-6-16 0-21l35-35c3-3 7-4 10-4 4 0 8 1 11 4l71 70c6 6 6 15 0 21-6 6-16 6-22 0z m-42-221c-98 0-177 79-177 175 0 97 79 176 177 176 98 0 178-79 178-176 0-96-80-175-178-175z m141 175c0 77-63 139-141 139-77 0-140-62-140-139 0-76 63-138 140-138 78 0 141 62 141 138z" horiz-adv-x="917" />
<glyph glyph-name="icon61" unicode="&#xe843;" d="m253 276l-64 92-72-102h417l-144 205-137-195z m351 395h-557c-26 0-47-20-47-46v-550c0-26 21-46 47-46h557c25 0 46 20 46 46v550c0 26-21 46-46 46z m-19-404c0-20-16-37-37-37h-446c-21 0-37 17-37 37v304c0 20 16 36 37 36h446c21 0 37-16 37-36v-304z" horiz-adv-x="650" />
<glyph glyph-name="icon62" unicode="&#xe844;" d="m259 275l-65 93-73-103h422l-145 207-139-197z m355 400h-564c-26 0-47-21-47-46v-558c0-25 21-46 47-46h564c26 0 47 21 47 46v558c0 25-21 46-47 46z m-18-409c0-20-17-37-38-37h-452c-20 0-37 17-37 37v307c0 21 17 37 37 37h452c21 0 38-16 38-37v-307h0z m409 58l-249 246c-9 9-22 10-33 5v-56c9 6 21 6 29-2l199-197c10-9 10-24 0-33l-137-136c-9-9-24-9-33 0l-58 58v-177c11-6 24-4 33 5l249 246c11 11 11 29 0 41z" horiz-adv-x="1017" />
<glyph glyph-name="icon64" unicode="&#xe845;" d="m1002 324l-249 246c-9 9-22 10-33 5v-56c9 6 21 6 29-2l199-197c10-9 10-24 0-33l-137-136c-9-9-24-9-33 0l-58 58v-177c10-6 24-4 33 5l249 246c11 11 11 29 0 41z m-391 351h-564c-26 0-47-21-47-46v-558c0-25 21-46 47-46h564c26 0 47 21 47 46v558c0 25-21 46-47 46z m-18-470c0-20-17-37-38-37h-452c-20 0-37 17-37 37v368c0 21 17 37 37 37h452c21 0 38-16 38-37l0-368 0 0z m-93-1h-316c0 35 33 63 73 63 0 0 7 0 16-1-17 34-31 77-36 106-1 10-2 18-1 24l0 0c0 0-31-37-26-74 0 0-41 32 13 81 0 0-61-13-74-35 0 0-5 56 66 54 0 0-24 25-82 21 0 0 25 44 87-1 0 0-15 38-46 40 0 0 54 35 70-36 4 22 48 51 95 17 0 0-51 15-86-33 0 0 66 36 91-23 0 0-55 25-85-1 0 0 69-21 47-59 0 0-32 40-60 45 0 0 1-8 4-20 4-26 14-63 40-99 22 21 54 35 89 35 67 0 121-47 121-104z" horiz-adv-x="1017" />
<glyph glyph-name="icon78" unicode="&#xe846;" d="m400 424c-57 0-103-45-103-101s46-101 103-101c57 0 103 45 103 101s-46 101-103 101z m341 179h-212c0 30-25 55-55 55h-148c-30 0-55-25-55-55h-212c-31 0-57-25-57-56v-448c0-31 26-56 57-56h682c32 0 57 25 57 56v448c0 31-25 56-57 56z m-341-493c-119 0-215 96-215 213s96 213 215 213c119 0 215-95 215-213s-96-213-215-213z m312 380c-18 0-33 14-33 33 0 18 15 33 33 33 19 0 34-15 34-33 0-19-15-33-34-33z" horiz-adv-x="800" />
<glyph glyph-name="icon79" unicode="&#xe847;" d="m517 450c-69 0-126-56-126-125 0-68 57-124 126-124 70 0 126 56 126 124 0 69-56 125-126 125z m32-205c19 15 32 38 32 65 0 46-38 83-85 83-11 0-21-2-31-6 14 11 32 19 52 19 47 0 85-38 85-84 0-35-22-65-53-77z m190 358h-39c-8 19-27 31-48 31-22 0-40-12-49-31h-15c-8 19-26 31-48 31-22 0-40-12-48-31h-90c0 30-24 55-54 55h-149c-30 0-54-25-54-55h-88c-32 0-57-25-57-56v-448c0-31 25-56 57-56h682c32 0 57 25 57 56v448c0 31-25 56-57 56z m-525-464c0-19-16-35-36-35h-81c-20 0-35 16-35 35v373c0 19 15 34 35 34h81c20 0 36-15 36-34v-373z m303 5c-101 0-183 81-183 181 0 100 82 181 183 181s183-81 183-181c0-100-82-181-183-181z" horiz-adv-x="800" />
<glyph glyph-name="icon80" unicode="&#xe848;" d="m578 279h218v-180c0-31-26-56-57-56h-682c-31 0-57 25-57 56v180h218c14-86 89-151 180-151 91 0 166 65 180 151z m161 324h-39c-8 19-27 31-48 31-22 0-40-12-48-31h-201c0 30-25 55-55 55h-148c-31 0-55-25-55-55h-88c-31 0-57-25-57-56v-208h218c14 86 89 151 180 151 91 0 166-65 180-151h218v208c0 31-26 56-57 56z m-341-418c-70 0-126 55-126 124 0 69 56 124 126 124 69 0 126-55 126-124 0-69-57-124-126-124z m-21 192c47 0 85-37 85-83 0-27-13-50-32-65 31 12 53 42 53 77 0 46-38 83-85 83-20 0-38-7-52-18 9 4 20 6 31 6z" horiz-adv-x="800" />
<glyph glyph-name="icon71" unicode="&#xe849;" d="m687 561h-123v26c0 61-49 93-94 93h-189c-62 0-95-48-95-93v-26h-123c-35 0-63-28-63-62v-180h200c10 87 85 154 175 154 91 0 165-67 176-154h199v180c0 34-28 62-63 62z m-186 0h-252v26c0 0 0 31 32 31h189c0 0 31 0 31-31v-26z m50-281h199v-198c0-34-28-62-63-62h-624c-35 0-63 28-63 62v198h199c10-88 85-157 176-157 91 0 167 69 176 157z m-176-120c77 0 140 62 140 138 0 76-63 139-140 139-77 0-140-63-140-139 0-76 63-138 140-138z m-75 157c1 2 4 3 6 3l47 0v47c0 4 4 8 9 8l27 0c2 0 4-1 5-2 1 0 1 0 1 0 1-2 2-4 2-6l0-47 47 0c3 0 5-1 6-3l0 0c2-1 3-3 3-5v-27c0-2-1-4-3-6-1-2-3-2-6-2l-47 0 0-47c0-2-1-5-3-6-1-2-3-3-5-3h-27c-2 0-5 1-6 3-2 1-3 3-3 6l0 47-47 0c-2 0-4 1-6 2-2 2-3 4-3 6v27c0 2 1 4 3 5z" horiz-adv-x="750" />
<glyph glyph-name="icon72" unicode="&#xe84a;" d="m195 71c0-28-23-51-52-51-29 0-52 23-52 51s23 52 52 52c29 0 52-23 52-52z m364 52c-29 0-53-24-53-52 0-28 24-52 53-52 29 0 52 24 52 52 0 29-23 52-52 52z m137 390v-384c0-29-21-53-50-57 0 48-39 86-88 86-48 0-88-39-88-87h-240c0 48-39 87-88 87-49 0-88-38-88-86-28 4-50 28-50 57v384c0 32 26 58 58 58h114v23c0 42 30 87 87 87h174c43 0 87-31 87-87v-23h114c32 0 58-26 58-58z m-230 81c0 29-29 29-29 29h-174c-29 0-29-29-29-29v-23h232v23h0z" horiz-adv-x="700" />
<glyph glyph-name="icon73" unicode="&#xe84b;" d="m643 508c0 18-15 32-33 32h-89v0c0 102-84 185-188 185-103 0-187-83-187-185v0h-90c-18 0-32-14-32-32l-23-501c0-18 15-32 33-32h599c18 0 32 14 32 32l-22 501z m-464 32c0 84 69 153 154 153s155-69 155-153v0h-309v0z m-16-99c-16 0-30 14-30 30 0 17 14 30 30 30 17 0 31-13 31-30 0-16-14-30-31-30z m340 0c-16 0-30 14-30 30 0 17 14 30 30 30 17 0 31-13 31-30 0-16-14-30-31-30z" horiz-adv-x="667" />
<glyph glyph-name="icon74" unicode="&#xe84c;" d="m617 500l-32-480c0-25-20-45-46-45h-460c-26 0-46 20-46 45l-32 480c0 25 20 45 45 45h39c0-4-1-7-1-11 0-29 24-53 54-53 29 0 53 24 53 53 0 4-1 7-2 11h240c-1-4-2-7-2-11 0-29 24-53 54-53 29 0 53 24 53 53 0 4 0 7-1 11h39c25 0 45-20 45-45z m-479 1c18 0 33 15 33 33 0 11-7 21-16 27 11 74 76 131 154 131 78 0 143-57 154-132-9-6-15-15-15-26 0-18 15-33 33-33 18 0 33 15 33 33 0 13-8 24-18 29-13 91-92 162-187 162-96 0-175-71-187-163-10-5-17-16-17-28 0-18 14-33 33-33z" horiz-adv-x="617" />
<glyph glyph-name="icon75" unicode="&#xe84d;" d="m644 601c0 18-15 32-33 32h-555c-18 0-33-14-33-32l-23-502c0-18 15-32 33-32h601c18 0 32 14 32 32l-22 502z m-52-37h-56c0-1 1-1 1-2 0-13-8-23-18-28-11-91-90-161-184-161-95 0-173 70-185 160-11 5-19 16-19 29 0 1 1 1 1 2h-56c-11 0-20 9-20 20s9 19 20 19h516c11 0 20-8 20-19 0-11-9-20-20-20z m-121-2c0 1 1 1 1 2h-276c0-1 1-1 1-2 0-11-6-21-15-26 11-74 75-131 153-131 77 0 141 56 152 130-10 6-16 15-16 27z" horiz-adv-x="667" />
<glyph glyph-name="icon76" unicode="&#xe84e;" d="m570 633h-522c-25 0-46-20-46-45l32-476c0-25 21-45 46-45h458c25 0 46 20 46 45l32 476c0 25-20 45-46 45z m-74-232c-12-92-91-162-186-162-95 0-174 70-186 161-11 5-19 16-19 29 0 18 15 32 33 32 18 0 33-14 33-32 0-11-6-21-14-27 10-74 75-131 153-131 77 0 141 57 152 131-9 6-15 15-15 27 0 18 15 32 33 32 18 0 33-14 33-32 0-13-7-23-17-28z m40 127h-454c-18 0-32 15-32 33 0 18 14 32 32 32h454c18 0 33-14 33-32 0-18-15-33-33-33z" horiz-adv-x="617" />
<glyph glyph-name="icon77" unicode="&#xe84f;" d="m389 323c0-56-46-101-103-101-57 0-103 45-103 101s46 101 103 101c57 0 103-45 103-101z m407 224v-448c0-31-26-56-57-56h-682c-32 0-57 25-57 56v448c0 31 25 56 57 56h100c0 30 25 55 55 55h148c30 0 55-25 55-55h324c31 0 57-25 57-56z m-293-224c0 117-96 213-215 213-119 0-215-96-215-213 0-118 96-213 215-213 119 0 215 95 215 213z m226 179c0 19-15 33-34 33-18 0-33-14-33-33 0-18 15-33 33-33 19 0 34 15 34 33z" horiz-adv-x="800" />
<glyph glyph-name="icon87" unicode="&#xe850;" d="m596 496h-40c2 71-28 142-89 191-95 76-231 68-318-13-12-11-16-27-7-40 21-29 45-7 45-7 64 64 170 71 242 13 46-36 67-90 66-144h-441c-30 0-54-24-54-54v-428c0-29 24-54 54-54h542c30 0 54 25 54 54v428c0 30-24 54-54 54z m-237-307v-63c0-18-15-33-33-33-19 0-34 15-34 33v63c-26 13-44 39-44 69 0 43 35 77 78 77 43 0 78-34 78-77 0-30-18-56-45-69z" horiz-adv-x="650" />
<glyph glyph-name="icon88" unicode="&#xe851;" d="m551 248c-197 0-288-169-274-217 0 0 19-46-37-48-44-1-80 35-80 105 0 144 92 167 19 170h-83c-31 0-57 26-57 58 0 31 26 57 57 57h-36c-32 0-58 26-58 57 0 32 26 58 58 58h9c-32 0-58 25-58 57 0 31 26 57 58 57h27c-31 0-57 26-57 57 0 32 26 58 57 58h455l0-469 0 0z m57 0h120c17 0 32 14 32 32v405c0 17-15 32-32 32h-120v-469l0 0z" horiz-adv-x="767" />
<glyph glyph-name="icon89" unicode="&#xe852;" d="m214 452c197 0 287 169 274 217 0 0-19 46 37 48 44 1 80-35 80-105 0-143-92-167-19-170h82c32 0 58-26 58-58 0-31-26-57-58-57h36c32 0 58-26 58-57 0-32-26-57-58-57h-9c32 0 58-26 58-58 0-31-26-57-58-57h-27c32 0 58-26 58-57 0-32-26-58-58-58h-454v469z m-58 0h-119c-18 0-32-14-32-32v-405c0-17 14-32 32-32h119v469z" horiz-adv-x="767" />
<glyph glyph-name="icon90" unicode="&#xe853;" d="m583 723v-548c1-43-36-89-92-109-66-24-117-5-135 44-17 48 6 107 72 132 29 10 59 12 84 7v293l-279-63c0-137 0-382 0-382 0-43-36-88-92-109-66-24-118-5-135 44-18 48 5 107 71 132 30 10 59 12 85 7v462l421 90z" horiz-adv-x="583" />
<glyph glyph-name="icon81" unicode="&#xe854;" d="m437 562c11-28 17-62 15-106-5-128-78-237-130-298-5 2-9 5-13 7 50 59 124 166 129 291 5 142-73 179-114 189 15-27 26-62 29-102 10-111-34-281-61-372-5 2-9 3-14 4 27 90 70 258 61 367-14 153-130 218-165 7-25-143 23-292 56-373-5-1-10-2-14-4-34 84-81 234-57 379 7 43 17 73 28 94-35-3-119-30-119-194 0-121 78-224 135-283-6-2-11-5-14-7-60 63-136 167-136 290 0 49 7 86 18 115-45-24-107-110-28-248 46-81 97-131 138-161 0 0 0-1 0-1 16-18 43-47 43-47 4 0 4 0 8 0l1-13 1-23-10 0c-5 0-9-4-9-10l7-37c0-5 4-9 9-9l39 0c6 0 10 4 10 9l7 38c0 5-4 9-10 9l-9 0 1 12c0 0 0 0 0 0l1 24c2 0 7 0 7 0 20 18 52 44 52 44-1 1 0 1 0 1 38 30 88 83 133 170 69 133 15 210-25 238z m-173-489l-25 0-1 13 0 0-2 23c11 0 23 0 30 0l-2-36z" horiz-adv-x="500" />
<glyph glyph-name="icon82" unicode="&#xe855;" d="m400 745c-221 0-400-177-400-395 0-218 179-395 400-395 221 0 400 177 400 395 0 218-179 395-400 395z m195-149c-26-31-51-22-51-22-27-3-29 11-51 65-2 4-3 8-4 11 39-11 75-30 106-54z m-340 32c6-8 13-18 25-28 12-13 78 40 99 29 16-9 0-67 19-61 95 34 75-46 129-87 42-31-13-60-45-99-32-39-108-17-107-61 1-43 12-82-66-87-45-2 47 78 22 99-18 16-62 1-78-35-16-36-66-137-66-53 0 84 42 132-7 145-48 14-48-7-77 5-6 3-11 3-16 2 16 101 80 186 168 231z m-29-539c2 8 14 47 59 19 49-31 70-49 118-44 23 3 53-5 71-18-23-6-48-9-74-9-64 0-124 19-174 52z m368 14c-3 27 37 83 53 102 27 33 68 161 39 167-54 11-67-41-85-33-39 17 27 53-27 77-54 23-7 83 43 88 20 2 43-3 64-10 23-43 36-92 36-144 0-100-48-189-123-247z" horiz-adv-x="800" />
<glyph glyph-name="icon83" unicode="&#xe856;" d="m400 745c-221 0-400-177-400-395 0-218 179-395 400-395 221 0 400 177 400 395 0 218-179 395-400 395z m-317-395c0 16 2 31 4 46 5 1 9 1 15-2 29-13 29 9 79-5 50-14 7-63 7-149 0-87 51 17 68 54 17 37 62 52 81 37 25-22-70-105-24-102 81 4 69 45 68 89-1 45 78 23 111 63 32 40 89 69 46 102-56 41-35 124-133 89-20-7-2 54-19 62-22 12-90-43-103-30-10 10-17 19-22 27 42 20 89 32 139 32 36 0 70-6 103-17 0-1 0-1 0-1 23-55 24-70 53-67 0 0 20-7 44 14 31-25 57-56 77-91-16 4-32 7-47 5-50-5-99-67-43-91 55-24-13-61 27-78 19-9 32 45 88 34 29-6-13-138-41-172-12-15-38-52-49-81-41-36-90-62-145-74-18 8-39 12-57 10-49-6-71 12-122 44-37 24-52 2-58-12-88 56-147 153-147 264z" horiz-adv-x="800" />
<glyph glyph-name="icon84" unicode="&#xe857;" d="m538 315h-108v183c0 19-15 34-34 34-18 0-33-15-33-34v-216c0-18 15-33 33-33h142c18 0 33 15 33 33 0 19-15 33-33 33z m-279 382c-20 13-43 21-68 24-43 5-84-6-117-28-4 3-9 5-15 5-16 0-28-12-28-28 0-5 2-10 4-14-17-22-29-50-33-80-6-47 9-92 38-126 32 111 113 201 219 247z m571-121c-4 30-15 58-33 80 3 4 5 9 5 14 0 16-13 28-28 28-6 0-11-2-15-5-33 22-74 33-117 28-25-3-48-11-68-24 106-46 187-136 219-247 29 34 43 79 37 126z m-58-233c0 173-128 317-296 346-1 12-6 24-16 34-23 24-61 25-85 2-11-10-17-23-19-37-167-28-295-172-295-345 0-108 49-204 126-268l-24-19c-24-19-27-53-8-77 11-14 27-21 43-21 12 0 25 4 35 12l56 45c40-15 82-24 127-24 45 0 88 9 128 24l56-45c10-8 22-12 35-12 16 0 32 7 43 21 19 24 15 58-9 77l-23 19c77 64 126 160 126 268z m-356-278c-155 0-281 124-281 278s126 278 281 278c156 0 282-125 282-278 0-154-126-278-282-278z" horiz-adv-x="833" />
<glyph glyph-name="icon85" unicode="&#xe858;" d="m400 745c-221 0-400-177-400-395 0-218 179-395 400-395 221 0 400 177 400 395 0 218-179 395-400 395z m0-708c-174 0-317 141-317 313 0 173 143 313 317 313 175 0 317-140 317-313 0-172-142-313-317-313z m137 285h-122v206c0 21-17 38-37 38-21 0-38-17-38-38v-243c0-20 17-37 38-37h159c20 0 37 17 37 37 0 21-17 37-37 37z" horiz-adv-x="800" />
<glyph glyph-name="icon86" unicode="&#xe859;" d="m596 511h-54c0 118-97 214-217 214-120 0-217-96-217-214h-54c-30 0-54-25-54-54v-428c0-30 24-54 54-54h542c30 0 54 24 54 54v428c0 29-24 54-54 54z m-237-293v-64c0-18-15-33-34-33-18 0-34 15-34 33v64c-26 12-44 38-44 69 0 42 35 77 78 77 43 0 78-35 78-77 0-31-18-57-44-69z m-196 293c0 88 73 160 162 160s163-72 163-160h-325z" horiz-adv-x="650" />
<glyph glyph-name="icon97" unicode="&#xe85a;" d="m400 741c-219 0-396-175-396-391 0-216 177-391 396-391 219 0 396 175 396 391 0 216-177 391-396 391z m0-701c-173 0-313 139-313 310 0 171 140 310 313 310 173 0 314-139 314-310 0-171-141-310-314-310z m35 457c-2 6-6 11-12 15-6 4-14 6-22 6-9 0-16-2-22-6-6-4-10-9-12-15l-101-283c-2-6-1-12 3-18 4-7 11-11 20-13 9-2 16-2 23 2 7 3 11 8 13 14l19 59h113l18-59c2-6 6-10 13-14 7-3 15-4 23-2 10 3 16 7 20 13 4 7 5 13 3 18l-99 283z m-75-189l41 127 40-127h-81z" horiz-adv-x="800" />
<glyph glyph-name="icon98" unicode="&#xe85b;" d="m400 741c-219 0-396-175-396-391 0-216 177-391 396-391 219 0 396 175 396 391 0 216-177 391-396 391z m0-701c-173 0-314 139-314 310 0 171 141 310 314 310s313-139 313-310c0-171-140-310-313-310z m82 445c-10 10-23 17-39 23-16 5-35 8-56 8h-68c-10 0-17-2-23-7-5-5-8-11-8-17v-282c0-6 3-12 8-17 6-6 13-9 23-9 9 0 16 2 21 7 6 5 8 11 8 17v96h39c23 0 42 3 58 8 16 6 29 13 39 23 10 9 17 19 21 31 5 12 7 25 7 38v5c0 15-2 29-7 42-5 13-12 25-23 34z m-30-84c0-6-1-12-4-18-2-6-6-11-12-15-5-5-12-8-20-11-8-2-18-4-29-4h-39v112h39c23 0 39-5 50-15 10-10 15-22 15-37l0-12 0 0z" horiz-adv-x="800" />
<glyph glyph-name="icon99" unicode="&#xe85c;" d="m400 741c-219 0-396-175-396-391 0-216 177-391 396-391 219 0 396 175 396 391 0 216-177 391-396 391z m0-701c-173 0-313 139-313 310 0 171 140 310 313 310 173 0 314-139 314-310 0-171-141-310-314-310z m79 485c5-9 6-17 4-25l-3-12c-3-8-8-15-17-19-8-4-18-5-29-2-11 3-19 9-24 17-6 8-7 16-5 24l3 13c3 8 9 14 17 19 9 4 19 4 30 1 11-3 19-9 24-16z m-27-96c5-8 6-16 4-24l-64-226c-3-8-8-14-17-18-8-5-18-5-29-2-11 3-19 8-24 16-6 9-7 17-5 25l64 226c3 8 8 14 17 19 9 4 19 4 30 1 11-3 19-9 24-17z" horiz-adv-x="800" />
<glyph glyph-name="icon91" unicode="&#xe85d;" d="m242 350c-80 0-145 64-145 143 0 80 65 144 145 144 80 0 145-64 145-144 0-79-65-143-145-143z m0 382c-133 0-242-107-242-239 0-131 242-525 242-525s242 394 242 525c0 132-109 239-242 239z" horiz-adv-x="483" />
<glyph glyph-name="icon92" unicode="&#xe85e;" d="m795 664h-723c-40 0-72-32-72-72v-484c0-40 32-72 72-72h723c40 0 72 32 72 72v484c0 40-32 72-72 72z m-694-47h665c4 0 9-1 13-3l-310-287c-10-10-22-16-36-16-12 0-24 5-34 15 0 0 0 0 0 0l-312 288c4 2 9 3 14 3z m713-493l-165 154c-12 11-30 11-41-1-11-11-10-29 1-40l163-153c-2 0-4-1-6-1h-665c-2 0-4 1-6 1l160 152c11 10 12 29 1 40-11 12-30 12-41 1l-162-153c-2 7-4 14-4 22l0 408c0 9 2 18 5 27l320-296c0-1 1-1 1-1 17-15 37-24 58-24 22 0 44 10 61 26 0 0 0 0 1 0l318 295c3-9 5-18 5-27l0-408c0-8-1-15-4-22z" horiz-adv-x="867" />
<glyph glyph-name="icon93" unicode="&#xe85f;" d="m71 36c-39 0-71 32-71 72v484c0 40 32 72 71 72h724c40 0 72-32 72-72v-484c0-40-32-72-72-72h-724l0 0z m269 270c-7 0-14-2-19-7l-178-170c-8-7-11-19-7-29 4-10 15-17 26-17h543c11 0 21 7 25 17 4 10 2 22-6 29l-178 170c-6 5-13 7-19 7-7 0-13-2-19-7l-16-15c-17-15-38-24-59-24-20 0-40 8-57 23l-18 16c-5 5-12 7-18 7z m451 244c-7 0-14-2-19-7l-183-169c-5-5-8-12-8-20 0-7 3-14 8-19l183-172c5-4 12-7 19-7 4 0 7 1 11 2 10 5 16 14 16 25l0 341c0 10-7 20-17 24-3 2-7 2-10 2z m-715 0c-4 0-7 0-11-2-10-4-16-14-16-24l0-341c0-10 7-20 17-24 3-2 7-2 10-2 7 0 14 2 19 7l183 171c5 5 8 12 8 19 0 7-3 15-8 20l-184 169c-5 5-11 7-18 7z m77 67c-12 0-21-7-26-17-3-10-1-22 7-30l264-244c11-10 23-15 35-15 10 0 23 3 36 16l263 243c8 8 11 19 7 30-4 10-14 17-25 17l-561 0 0 0z" horiz-adv-x="867" />
<glyph glyph-name="icon94" unicode="&#xe860;" d="m753 138l-172 170c19 38 30 82 30 127 0 167-137 302-306 302-168 0-305-135-305-302s137-301 305-301c47 0 90 10 130 29l171-170c41-40 106-40 147 0 41 40 41 105 0 145z m-448 84c-119 0-216 95-216 213 0 118 97 214 216 214 120 0 217-96 217-214 0-118-97-213-217-213z m107 250h-70v69c0 20-16 37-37 37-20 0-37-17-37-37v-69h-70c-20 0-37-16-37-37 0-20 17-36 37-36h70v-69c0-21 17-37 37-37 21 0 37 16 37 37v69h70c21 0 37 16 37 36 0 21-16 37-37 37z" horiz-adv-x="783" />
<glyph glyph-name="icon95" unicode="&#xe861;" d="m754 138l-172 170c19 38 29 82 29 127 0 167-137 302-305 302-168 0-305-135-305-302 0-166 137-301 305-301 46 0 90 10 129 29l172-170c41-40 106-40 147 0 40 40 40 105 0 145z m-448 84c-119 0-216 96-216 213 0 118 97 214 216 214 119 0 216-96 216-214 0-117-97-213-216-213z m107 250h-214c-21 0-37-16-37-37 0-20 16-36 37-36h214c20 0 37 16 37 36 0 21-17 37-37 37z" horiz-adv-x="783" />
<glyph glyph-name="icon96" unicode="&#xe862;" d="m750 140l-170 168c18 38 28 81 28 127 0 164-135 298-302 298-167 0-302-134-302-298 0-165 135-299 302-299 46 0 89 10 128 28l170-168c40-39 105-39 146 0 40 40 40 104 0 144z m-444 83c-118 0-214 95-214 212 0 116 96 211 214 211 118 0 214-95 214-211 0-117-96-212-214-212z" horiz-adv-x="783" />
<glyph glyph-name="icon100" unicode="&#xe863;" d="m400 741c-219 0-396-175-396-391 0-216 177-391 396-391 219 0 396 175 396 391 0 216-177 391-396 391z m-313-391c0 171 140 310 313 310 74 0 142-26 196-69l-440-435c-43 54-69 121-69 194z m313-310c-74 0-142 26-196 69l440 435c44-53 70-121 70-194 0-171-141-310-314-310z" horiz-adv-x="800" />
<glyph glyph-name="icon106" unicode="&#xe864;" d="m548 552h-65v14c0 35-29 63-65 63s-64-28-64-63v-14h-141v14c0 35-29 63-65 63-35 0-64-28-64-63v-14h-66c-9 0-17-8-17-17v-447c0-9 8-17 17-17h530c10 0 18 8 18 17v447c0 9-8 17-18 17z m-52-394c0-10-8-18-18-18h-390c-9 0-17 8-17 18v308c0 9 8 17 17 17h390c10 0 18-8 18-17l0-308 0 0z m-288 251v-64c0-10-8-18-18-18h-45c-10 0-17 8-17 18v64c0 10 7 18 17 18h45c10 0 18-8 18-18z m115 0v-64c0-10-8-18-17-18h-46c-9 0-17 8-17 18v64c0 10 8 18 17 18h46c9 0 17-8 17-18z m116 0v-64c0-10-8-18-18-18h-45c-9 0-17 8-17 18v64c0 10 8 18 17 18h45c10 0 18-8 18-18z m-231-131v-65c0-9-8-17-18-17h-45c-10 0-17 8-17 17v65c0 10 7 18 17 18h45c10 0 18-8 18-18z m115 0v-65c0-9-8-17-17-17h-46c-9 0-17 8-17 17v65c0 10 8 18 17 18h46c9 0 17-8 17-18z m116 0v-65c0-9-8-17-18-17h-45c-9 0-17 8-17 17v65c0 10 8 18 17 18h45c10 0 18-8 18-18z" horiz-adv-x="567" />
<glyph glyph-name="icon105" unicode="&#xe865;" d="m767 423v-334c0-70-58-127-128-127h-320c-16 0-30 14-30 30 0 16 14 29 30 29h320c38 0 69 30 69 68v301h-171c-53 0-99 33-118 79l-8 30c-1 6-2 12-2 18v162h-168c-37 0-69-30-69-68v-368c0-16-13-29-29-29-16 0-29 13-29 29v368c0 70 57 127 127 127h206c8 0 15-4 21-9l290-286c6-5 9-12 9-20z m-409-201c-16 16-42 16-58 0l-164-161-65 65c-17 16-43 16-59 0-16-16-16-41 0-57l95-95c8-8 19-12 29-12 11 0 22 4 30 12l192 191c16 16 16 41 0 57z" horiz-adv-x="767" />
<glyph glyph-name="icon104" unicode="&#xe866;" d="m764 423v-335c0-70-58-128-129-128h-274c-16 0-29 14-29 30 0 16 13 29 29 29h274c39 0 70 31 70 69v303h-172c-53 0-99 32-118 78l-8 31c-1 6-2 12-2 18v163h-169c-38 0-69-31-69-69v-323c0-16-14-29-30-29-16 0-29 13-29 29v323c0 70 57 128 128 128h207c7 0 15-4 21-9l292-287c5-6 8-13 8-21z m-500-202c-16 17-42 17-58 0l-68-66-67 66c-17 17-43 17-59 0-16-15-16-41 0-57l68-67-68-67c-16-16-16-42 0-58 16-16 42-16 59 0l67 67 68-67c16-16 42-16 58 0 16 16 16 42 0 58l-67 67 67 67c16 16 16 42 0 57z" horiz-adv-x="767" />
<glyph glyph-name="icon101" unicode="&#xe867;" d="m654 741h-640c-7 0-13-6-13-13v-442c0-182 315-320 328-326 2 0 3-1 5-1 2 0 4 1 6 1 13 6 328 144 328 326v442c0 7-6 13-14 13z m-59-430c0-141-246-250-257-254-1-1-2-1-4-1-1 0-3 0-4 1-10 4-257 113-257 254v346c0 6 5 11 11 11h501c6 0 10-5 10-11v-346l0 0z m-104 262c-17 10-39 5-50-12l-154-244-61 80c-12 16-35 19-51 7-16-12-19-35-7-50l93-122c7-9 18-14 29-14 1 0 1 0 2 0 12 1 23 7 29 17l182 288c10 17 5 39-12 50z" horiz-adv-x="667" />
<glyph glyph-name="icon102" unicode="&#xe868;" d="m800 423v-334c0-70-57-127-128-127h-480c-16 0-29 14-29 30 0 16 13 29 29 29h480c38 0 69 30 69 68v301h-171c-53 0-98 33-118 79l-8 30c0 6-1 12-1 18v162h-168c-38 0-69-30-69-68v-322c0-16-13-29-30-29-16 0-29 13-29 29v322c0 70 57 126 128 126h205c8 0 16-3 21-8l290-286c6-5 9-13 9-20z m-445-285c0 22-19 41-42 41h-272c-22-1-41-19-41-41 0-23 19-41 41-41h272c23 0 42 18 42 41z" horiz-adv-x="800" />
<glyph glyph-name="icon107" unicode="&#xe869;" d="m402 444c-13 8-30 4-38-8l-116-185-47 60c-9 12-26 14-38 5-13-9-15-26-6-38l71-92c5-7 13-11 22-11 0 0 1 0 1 0 9 1 17 6 22 13l138 219c8 13 4 29-9 37z m146 108h-65v14c0 35-29 63-64 63-36 0-65-28-65-63v-14h-141v14c0 35-29 63-65 63-35 0-64-28-64-63v-14h-66c-9 0-17-8-17-17v-447c0-9 8-17 17-17h530c10 0 18 8 18 17v447c0 9-8 17-18 17z m-52-394c0-10-8-18-18-18h-389c-10 0-18 8-18 18v308c0 9 8 17 18 17h389c10 0 18-8 18-17v-308z" horiz-adv-x="567" />
<glyph glyph-name="icon108" unicode="&#xe86a;" d="m439 427h-81v-100h81v100z m-196-231h81v100h-81v-100z m-115 0h80v100h-80v-100z m230 0h81v100h-81v-100z m-150 231h-80v-100h80v100z m116 0h-81v-100h81v100z m159 125v14c0 35-29 63-65 63-35 0-64-28-64-63v-14h-141v14c0 35-29 63-65 63-35 0-64-28-64-63v-14h-83v-481h565v481h-83z m13-412h-425v343h425v-343z" horiz-adv-x="567" />
<glyph glyph-name="icon109" unicode="&#xe86b;" d="m228 186c5-7 13-10 22-10 0 0 0 0 1 0 9 0 17 5 22 12l138 219c8 13 4 29-9 37-13 8-30 4-38-8l-116-185-47 60c-9 12-26 14-38 5-12-9-15-26-6-38l71-92z m255 366v14c0 35-29 63-65 63-35 0-64-28-64-63v-14h-141v14c0 35-29 63-65 63-35 0-64-28-64-63v-14h-83v-481h565v481h-83z m13-412h-425v343h425v-343z" horiz-adv-x="567" />
<glyph glyph-name="icon110" unicode="&#xe86c;" d="m631 606v-101c0-10-9-19-20-19h-589c-11 0-20 9-20 19v101c0 10 9 19 20 19h590c10 0 19-9 19-19z m-19-186h-590c-11 0-20-9-20-20v-100c0-11 9-20 20-20h590c10 0 19 9 19 20v100c0 11-9 20-19 20z m0-206h-590c-11 0-20-9-20-19v-100c0-11 9-20 20-20h590c10 0 19 9 19 20v100c0 10-9 19-19 19z" horiz-adv-x="633" />
<glyph glyph-name="icon103" unicode="&#xe86d;" d="m800 423v-334c0-70-57-127-128-127h-328c-16 0-29 14-29 30 0 16 13 29 29 29h328c38 0 69 30 69 68v301h-171c-53 0-98 33-118 79l-8 30c0 6-1 12-1 18v162h-168c-38 0-69-30-69-68v-206c0-16-13-29-30-29-16 0-29 13-29 29v206c0 70 57 127 128 127h205c8 0 16-4 21-9l290-286c6-5 9-13 9-20z m-446-285c0 22-18 40-41 40h-94v94c0 23-19 41-42 41-22 0-41-18-41-41v-94h-95c-23 0-41-18-41-40 0-23 18-41 41-41h95v-94c0-22 19-40 41-40 23 0 42 18 42 40v94h94c23 0 41 18 41 41z" horiz-adv-x="800" />
<glyph glyph-name="icon118" unicode="&#xe86e;" d="m273 535l-187-185 187-185c14-14 14-36 0-50-7-7-16-10-25-10-9 0-18 3-25 10l-213 210c-13 14-13 36 0 50l213 210c14 13 36 13 50 0 14-14 14-36 0-50z" horiz-adv-x="283" />
<glyph glyph-name="icon119" unicode="&#xe86f;" d="m10 165l188 185-188 185c-13 14-13 36 0 50 7 7 16 10 25 10 10 0 19-3 26-10l212-210c14-14 14-36 0-50l-212-210c-14-13-37-13-51 0-13 14-13 36 0 50z" horiz-adv-x="283" />
<glyph glyph-name="icon120" unicode="&#xe870;" d="m439 219l-189 187-189-187c-14-14-37-14-50 0-8 7-11 16-11 25 0 9 3 18 11 25l214 212c14 14 36 14 50 0l215-212c14-14 14-36 0-50-14-14-37-14-51 0z" horiz-adv-x="500" />
<glyph glyph-name="icon111" unicode="&#xe871;" d="m249 608v-207c0-9-8-17-18-17h-209c-10 0-18 8-18 17v207c0 9 8 17 18 17h209c10 0 18-8 18-17z m296 17h-209c-10 0-18-8-18-17v-207c0-9 8-17 18-17h209c9 0 17 8 17 17v207c0 9-7 17-17 17z m-314-309h-209c-10 0-18-8-18-17v-207c0-9 8-17 18-17h209c10 0 18 8 18 17v207c0 9-8 17-18 17z m314 0h-209c-10 0-18-8-18-17v-207c0-9 8-17 18-17h209c9 0 17 8 17 17v207c0 9-7 17-17 17z" horiz-adv-x="567" />
<glyph glyph-name="icon112" unicode="&#xe872;" d="m158 608v-118c0-10-8-18-17-18h-120c-10 0-17 8-17 18v118c0 9 7 17 17 17h120c9 0 17-8 17-17z m182 17h-120c-10 0-18-8-18-17v-118c0-10 8-18 18-18h120c9 0 17 8 17 18v118c0 9-8 17-17 17z m206 0h-120c-9 0-17-8-17-17v-118c0-10 8-18 17-18h120c9 0 17 8 17 18v118c0 9-7 17-17 17z m-405-196h-120c-10 0-17-8-17-18v-118c0-9 7-17 17-17h120c9 0 17 8 17 17v118c0 10-8 18-17 18z m199 0h-120c-10 0-18-8-18-18v-118c0-9 8-17 18-17h120c9 0 17 8 17 17v118c0 10-8 18-17 18z m206 0h-120c-9 0-17-8-17-18v-118c0-9 8-17 17-17h120c9 0 17 8 17 17v118c0 10-7 18-17 18z m-405-201h-120c-10 0-17-8-17-17v-119c0-9 7-17 17-17h120c9 0 17 8 17 17v119c0 9-8 17-17 17z m199 0h-120c-10 0-18-8-18-17v-119c0-9 8-17 18-17h120c9 0 17 8 17 17v119c0 9-8 17-17 17z m206 0h-120c-9 0-17-8-17-17v-119c0-9 8-17 17-17h120c9 0 17 8 17 17v119c0 9-7 17-17 17z" horiz-adv-x="567" />
<glyph glyph-name="icon115" unicode="&#xe873;" d="m258 593l64-182 195-4-155-116 56-184-160 110-159-110 56 184-155 116 194 4 64 182z" horiz-adv-x="517" />
<glyph glyph-name="icon113" unicode="&#xe874;" d="m547 575h-477c-36 0-65-29-65-65v-320c0-36 29-65 65-65h477c36 0 65 29 65 65v320c0 36-29 65-65 65z m-177-271l118-112h-359l118 112 12-11c14-13 31-20 49-20 19 0 37 8 51 21l11 10z m-62 38c-3 0-7 2-10 5 0 0 0 0-1 0l-174 161h370l-174-161c-3-3-7-5-11-5z m-115 11l-120-113 0 225 120-112z m351 112l0-225-121 113 121 112z" horiz-adv-x="617" />
<glyph glyph-name="icon116" unicode="&#xe875;" d="m470 306c-1-1-1-2-2-2-14-17-74-86-203-160-2-2-4-2-7-2-3 0-5 0-8 2-137 79-197 153-204 162-58 59-57 154 1 213 25 25 59 39 95 39 36 0 70-14 95-39l22-22 21 22c25 25 59 39 95 39 36 0 70-14 95-39 58-59 58-155 0-213z" horiz-adv-x="517" />
<glyph glyph-name="icon114" unicode="&#xe876;" d="m474 314h-1c0 0-62-84-215-172-153 88-215 172-215 172-57 57-57 149 0 206 50 51 131 51 181 0l34-34 34 34c51 51 132 51 182 0 57-57 57-149 0-206z" horiz-adv-x="517" />
<glyph glyph-name="icon117" unicode="&#xe877;" d="m525 393l-141-105 51-167c2-6 0-13-6-17-2-2-6-3-9-3-3 0-6 1-9 3l-144 99-145-99c-3-2-6-3-9-3-3 0-6 1-9 3-5 4-8 11-6 17l52 167-141 105c-5 4-7 11-5 17 2 6 8 10 14 11l176 3 58 165c2 6 8 10 15 10 6 0 12-4 14-10l58-165 176-3c7-1 13-5 15-11 2-6 0-13-5-17z" horiz-adv-x="533" />
<glyph glyph-name="icon127" unicode="&#xe878;" d="m250 325l-210-123c-23-13-40-2-40 25v246c0 28 17 38 40 25l209-123c23-14 24-36 1-50z" horiz-adv-x="267" />
<glyph glyph-name="icon128" unicode="&#xe879;" d="m185 466l125-209c14-24 3-40-25-40h-252c-28 0-40 16-25 40l126 208c14 24 37 25 51 1z" horiz-adv-x="317" />
<glyph glyph-name="icon129" unicode="&#xe87a;" d="m133 234l-125 209c-15 24-3 40 25 40h252c28 0 39-16 25-40l-126-208c-14-24-36-25-51-1z" horiz-adv-x="317" />
<glyph glyph-name="icon130" unicode="&#xe87b;" d="m329 529l-180-179 180-179-72-71-253 250 253 250 72-71z" horiz-adv-x="333" />
<glyph glyph-name="icon126" unicode="&#xe87c;" d="m17 375l210 123c23 14 40 2 40-25v-246c0-27-17-38-40-25l-209 123c-23 14-25 36-1 50z" horiz-adv-x="267" />
<glyph glyph-name="icon121" unicode="&#xe87d;" d="m61 481l189-187 189 187c14 14 37 14 51 0 6-7 10-16 10-25 0-9-4-18-10-25l-215-212c-14-14-36-14-50 0l-214 212c-15 14-15 36 0 50 14 14 36 14 50 0z" horiz-adv-x="500" />
<glyph glyph-name="icon123" unicode="&#xe87e;" d="m426 368c8-7 10-18 6-28-4-9-13-15-24-15h-94v-164c0-14-11-25-25-25h-144c-14 0-25 11-25 25v164h-94c-10 0-20 6-24 15-4 10-1 21 6 28l191 189c5 5 11 7 18 7 7 0 13-2 18-7l191-189z" horiz-adv-x="433" />
<glyph glyph-name="icon122" unicode="&#xe87f;" d="m432 360c4-10 2-21-6-28l-191-189c-5-5-11-7-18-7-6 0-13 2-18 7l-191 189c-7 7-10 18-6 28 4 9 14 15 24 15h94v164c0 14 11 25 25 25h144c14 0 25-11 25-25v-164h94c11 0 20-6 24-15z" horiz-adv-x="433" />
<glyph glyph-name="icon124" unicode="&#xe880;" d="m427 368c4-5 7-11 7-18 0-7-3-13-7-18l-192-189c-5-4-11-7-18-7-3 0-6 1-10 2-9 4-15 13-15 23v93h-166c-14 0-25 11-25 25v142c0 14 11 25 25 25h166v93c0 10 6 19 15 23 4 2 7 2 10 2 7 0 13-2 18-7l192-189z" horiz-adv-x="433" />
<glyph glyph-name="icon125" unicode="&#xe881;" d="m433 421v-142c0-14-11-25-25-25h-166v-93c0-10-6-19-16-23-3-1-6-2-9-2-7 0-13 2-18 7l-192 189c-10 10-10 26 0 36l192 189c5 5 11 7 18 7 3 0 6-1 9-2 10-4 16-13 16-23v-93h166c14 0 25-11 25-25z" horiz-adv-x="433" />
<glyph glyph-name="icon136" unicode="&#xe882;" d="m148 67v439l-93-85-51 47 179 165 180-165-51-47-93 85v-439h-71z" horiz-adv-x="367" />
<glyph glyph-name="icon137" unicode="&#xe883;" d="m219 633v-439l92 85 52-47-179-165-180 165 51 47 92-85v439h72z" horiz-adv-x="367" />
<glyph glyph-name="icon138" unicode="&#xe884;" d="m267 196l-267 154 267 154v-308z" horiz-adv-x="267" />
<glyph glyph-name="icon139" unicode="&#xe885;" d="m0 504l267-154-267-154v308z" horiz-adv-x="267" />
<glyph glyph-name="icon140" unicode="&#xe886;" d="m159 483l157-266h-314l157 266z" horiz-adv-x="317" />
<glyph glyph-name="icon131" unicode="&#xe887;" d="m4 171l181 179-181 179 72 71 253-250-253-250-72 71z" horiz-adv-x="333" />
<glyph glyph-name="icon132" unicode="&#xe888;" d="m429 191l-179 177-179-177-71 71 250 247 250-247-71-71z" horiz-adv-x="500" />
<glyph glyph-name="icon133" unicode="&#xe889;" d="m71 509l179-177 179 177 71-71-250-247-250 247 71 71z" horiz-adv-x="500" />
<glyph glyph-name="icon134" unicode="&#xe88a;" d="m575 315h-439l85-90-47-50-166 175 166 175 47-50-85-90h439v-70l0 0 0 0z" horiz-adv-x="583" />
<glyph glyph-name="icon135" unicode="&#xe88b;" d="m8 385h440l-85 90 47 50 165-175-165-175-47 50 85 90h-440v70z" horiz-adv-x="583" />
<glyph glyph-name="icon141" unicode="&#xe88c;" d="m1 484h316l-158-268-158 268z" horiz-adv-x="317" />
<glyph glyph-name="icon144" unicode="&#xe88d;" d="m278 159c0-6-2-12-6-16-5-5-11-7-17-7l-75 0c-6 0-12 3-16 7-5 4-7 10-7 16l0 131-133 0c-6 0-12 2-16 6l0 0c-5 5-7 11-7 17l0 74c0 6 2 12 7 17 4 4 10 6 16 6l132 0v131c0 12 11 23 24 23l75 0c6 0 12-2 17-7 0 0 0 0 0 0 4-4 7-10 6-16l0-131 132 0c7 0 13-2 17-6l0 0c4-5 7-11 7-17l0-74c0-6-3-12-7-16-4-5-10-7-17-7l-132 0 0-131z" horiz-adv-x="433" />
<glyph glyph-name="icon145" unicode="&#xe88e;" d="m24 290c-6 0-12 2-17 6h0c-4 5-6 11-6 17l0 74c0 6 2 12 6 17 5 4 11 6 17 6l386 0c7 0 13-2 17-6l0 0c4-5 7-11 7-17l0-74c0-6-3-12-7-16-4-5-10-7-17-7l-386 0 0 0z" horiz-adv-x="433" />
<glyph glyph-name="icon149" unicode="&#xe88f;" d="m762 640c0-47-38-85-86-85-47 0-86 38-86 85 0 47 39 85 86 85 48 0 86-38 86-85z m-126-571h-44v134c0 15-7 29-19 38l-155 111 161 163c13 14 17 34 10 51-8 18-25 29-44 29h-323c-26 0-48-21-48-47 0-26 22-47 48-47h210l-120-123c-10-10-15-23-14-37 1-13 8-26 20-34l5-4-158-160-81 72c-20 17-50 16-68-4-17-19-15-49 4-66l179-158c9-8 20-12 31-12 13 0 26 5 36 16 17 19 16 49-4 66l-26 23 165 168 96-69v-110h-101c-26 0-47-21-47-47s21-47 47-47h240c26 0 47 21 47 47 0 26-21 47-47 47z" horiz-adv-x="767" />
<glyph glyph-name="icon143" unicode="&#xe890;" d="m410 235c4-4 7-10 7-16 0-6-3-12-7-16l-52-52c-5-4-11-7-16-7-6 0-12 3-17 7l-117 115-116-115c-4-4-10-7-16-7h0c-6 0-12 3-17 7l-52 52c-4 4-7 10-7 16 0 6 3 12 7 16l117 115-117 115c-9 9-9 24 0 32l52 52c5 5 10 7 17 7l0 0c6 0 12-2 16-7l116-115 117 115c4 5 10 7 16 7l0 0c6 0 12-2 17-7l52-52c4-4 7-10 7-16 0-6-3-12-7-16l-117-115 117-115z" horiz-adv-x="417" />
<glyph glyph-name="icon150" unicode="&#xe891;" d="m166 719c0 53 44 97 98 97 54 0 98-44 98-97 0-54-44-97-98-97-54 0-98 43-98 97z m461-765c-7-3-13-4-20-4-22 0-42 13-50 34l-4 10c-59-68-145-110-239-110-173 0-314 140-314 311 0 135 89 252 215 294v47c0 29 24 53 54 53 29 0 54-24 54-53v-33h168c30 0 54-24 54-54 0-29-24-53-54-53h-168v-103h190c22 0 42-13 50-34l94-236c11-27-3-58-30-69z m-123 162l-28 70h-207c-30 0-54 24-54 54v133c-64-35-107-102-107-178 0-113 92-204 206-204 83 0 158 50 190 125z" horiz-adv-x="667" />
<glyph glyph-name="icon142" unicode="&#xe892;" d="m521 470l-325-321c-4-5-10-7-16-7 0 0-2 0-2 0-1 0-3 0-3 0-6 0-12 2-16 7l-147 143c-4 4-6 10-6 16 0 6 2 12 6 17l50 49c4 4 10 7 17 7l0 0c6 0 12-3 16-7l83-81 260 259c5 4 11 6 17 6 6 0 12-2 16-6l50-50c9-9 9-23 0-32z" horiz-adv-x="533" />
<glyph glyph-name="icon147" unicode="&#xe893;" d="m300 646c-166 0-300-132-300-296 0-164 134-296 300-296 166 0 300 132 300 296 0 164-134 296-300 296z m0-571c-154 0-279 123-279 275 0 152 125 275 279 275 154 0 279-123 279-275 0-152-125-275-279-275z m-242 283l-9-2c3 135 114 243 251 243 107 0 199-67 235-161l-9-1c-36 89-123 152-226 152-131 0-237-102-242-231z m481-47l10 2c-18-120-123-211-249-211-96 0-180 53-222 132l10 2c41-75 120-125 212-125 120 0 220 87 239 200z m-470-11c-8-2-14-1-22 4l6 9c5-3 11-3 14-2 5 0 7 2 7 5 0 2-3 3-8 3-11-1-20 0-22 11-1 10 8 16 17 17 7 1 13 1 18-2l-5-9c-3 1-7 2-11 1-3-1-6-2-6-5 1-3 4-3 9-2 9 0 19-2 21-12 2-10-7-17-18-18z m61 11l14 3-29 41-13-2-13-49 14 3 2 8 20 3 5-7z m-23 15l4 16 8-14-12-2z m59-9l-13-2-6 35-14-2-1 10 39 7 2-11-13-2 6-35z m11 49l13 2 8-45-13-3-8 46z m52-24c0 2-3 3-8 3-10-1-19 0-21 11-2 10 7 16 17 17 6 2 12 1 18-2l-5-9c-4 2-8 2-12 1-3 0-6-2-5-4 0-3 3-3 8-3 9 0 19-2 21-12 2-10-7-16-17-18-9-2-15-1-22 4l6 10c5-4 10-4 14-3 4 0 7 2 6 5z m14 35l35 6 2-11-22-4 1-8 21 3 2-10-21-4 3-15-13-3-8 46z m54 9l-12-49 13 3 2 8 21 3 4-7 14 2-29 42-13-2z m6-27l3 15 8-13-11-2z m45 12c1-6 5-12 14-11 3 1 7 3 10 7l9-8c-4-5-10-9-17-10-18-3-27 7-29 20-2 11 4 25 21 28 6 1 13 0 19-4l-7-9c-4 2-7 2-10 2-9-2-11-9-10-15z m70 24l-14-2 6-35-13-2-6 35-13-2-2 10 40 7 2-11z m24-31l-13-2-8 45 13 2 8-45z m33 4c15 3 24 13 21 28-2 15-14 22-29 20-15-3-24-14-22-28 3-16 15-22 30-20z m-7 37c8 1 14-3 15-11 2-8-3-14-10-15-7-1-14 3-15 11-1 7 3 13 10 15z m61 20l13 2 8-45-11-2-23 21 1-10 3-14-13-2-8 45 11 2 24-22c-1 6-2 8-2 9l-3 16z m-436-177c-18-3-27 7-29 19-2 12 4 26 21 29 6 1 12 0 19-5l-6-8c-4 2-8 2-11 2-8-1-12-7-10-16 1-5 5-12 14-11 3 1 7 2 9 4l-1 6-12-2-1 10 22 4 3-20c-1-6-9-11-18-12z m23 25l-4 26 13 2 4-25c1-8 5-10 10-9 6 1 9 5 7 11l-4 26 13 2 4-25c3-14-4-23-18-25-13-2-23 4-25 17z m64-2l20 4 5-7 14 2-29 42-13-2-13-49 14 2 2 8z m6 27l8-13-12-2 4 15z m79-20l0 0-15 14c7 4 9 10 8 15-2 8-9 15-21 13l-22-4 7-45 13 2-2 15 4 0 14-13 14 3z m-24 21l-10-2-2 11 10 1c3 1 5-1 6-4 0-3-1-6-4-6z m37 28l-13-49 14 2 2 8 20 3 4-6 14 2-28 42-13-2z m5-27l4 15 8-14-12-1z m40-12l-8 45 11 2 24-22c-1 6-2 8-2 9l-3 16 14 2 7-45-11-2-23 21 2-10 2-14-13-2z m83 49l-14-2 6-35-13-2-6 35-13-2-2 10 40 7 2-11z m4 12l35 6 2-11-23-4 1-6 22 3 2-10-22-4 1-7 24 4 2-10-37-7-7 46z m88-32l-36-6-8 45 35 6 2-11-23-3 1-7 22 4 2-11-22-3 1-7 24 4 2-11z m27 5c17 2 23 14 20 27-2 12-11 21-28 18l-19-3 8-46 19 4z m-6 34c8 2 12-3 14-9 1-7-1-13-10-15l-6-1-4 24 6 1z m-334 75l2-14-37-6-2 14 10 2-5 30-9-5-3 15 26 13 8-51 10 2z m27 57c-16-3-28-13-25-34l2-9c3-20 19-26 34-23 16 2 27 13 24 33l-1 9c-4 20-18 26-34 24z m8-52c-6-1-12 3-13 12l-2 9c-1 10 3 14 9 15 7 2 12-2 14-11l1-9c2-10-2-15-9-16z m59 62c-16-2-28-12-25-33l2-9c3-20 19-26 34-24 16 3 27 14 24 34l-1 9c-4 19-18 26-34 23z m8-51c-6-1-12 2-13 12l-2 9c-1 9 3 14 9 15 7 1 12-2 14-12l1-8c2-10-2-15-9-16z m45 60c-12-2-16-10-14-18 1-8 7-14 19-12 11 2 15 10 14 18-2 7-8 14-19 12z m3-19c-3-1-5 1-5 3-1 2 0 4 3 5 3 0 5-1 5-3 1-2 0-5-3-5z m46-9c-11-1-15-10-14-17 2-8 8-15 19-13 12 2 15 10 14 18-1 8-7 14-19 12z m3-19c-3 0-4 2-5 4 0 2 1 4 4 4 3 1 5-1 5-3 0-2-1-4-4-5z m-18 52l17 2-32-70-16-3 31 71z m-117-282l-17-17 11-21-22 10-17-16 3 23-21 11 24 4 4 24 11-21 24 3z m73 12l-16-17 10-21-21 10-17-16 3 23-22 11 24 4 4 24 11-21 24 3z m73 13l-16-18 10-21-21 10-17-16 3 23-22 11 24 5 4 23 11-21 24 4z m73 12l-16-18 11-21-22 10-17-16 3 23-21 11 23 5 4 23 12-21 23 4z" horiz-adv-x="600" />
<glyph glyph-name="icon146" unicode="&#xe894;" d="m404 322c-27 27-237 234-237 234h-167v-165l237-235c0 0 28-27 56 0l111 111c0 0 28 27 0 55z m-292 124c-16-16-41-16-56 0-16 15-16 40 0 55 15 15 40 15 56 0 15-15 15-40 0-55z" horiz-adv-x="417" />
<glyph glyph-name="icon148" unicode="&#xe895;" d="m82 709c0 52 42 94 95 94 53 0 95-42 95-94s-42-94-95-94c-53 0-95 42-95 94z m532-745l-79 250c-6 21-27 36-50 36h-188l-49 300c-5 28-32 48-61 43-29-5-48-31-43-60l57-343c4-26 26-44 52-44h193l68-213c7-22 28-36 50-36 5 0 11 1 16 2 28 9 43 38 34 65z m-234 127h-222l-53 348c-5 29-32 48-60 44-29-4-49-31-44-59l60-393c4-25 26-44 52-44h267c29 0 52 23 52 52s-23 52-52 52z" horiz-adv-x="617" />
<glyph glyph-name="icon157" unicode="&#xe896;" d="m241 698c0 47 39 85 86 85 48 0 87-38 87-85 0-47-39-85-87-85-47 0-86 38-86 85z m205-396c10-11 23-17 37-17 11 0 21 4 30 11 20 17 24 46 7 66l-167 201c-6 8-14 15-24 18-25 9-52-4-61-29l-199-573c-8-25 5-51 30-60 5-2 11-2 16-2 19 0 38 12 44 31l88 252 160-261c8-14 24-22 40-22 9 0 17 2 25 6 22 14 30 43 16 65l-201 328 43 126 116-140z m-304-22l80 235c13 37-7 77-44 89-38 13-78-7-91-44l-80-234c-13-37 7-77 44-90 8-2 16-3 23-3 30 0 58 18 68 47z" horiz-adv-x="533" />
<glyph glyph-name="icon153" unicode="&#xe897;" d="m152 720c0 53 44 97 98 97 54 0 98-44 98-97 0-54-44-97-98-97-54 0-98 43-98 97z m176-268l62-188c7-22 29-37 51-37 6 0 12 1 17 3 29 9 44 39 35 67l-81 249c-7 22-28 37-52 37h-220c-24 0-45-15-52-37l-81-249c-9-28 7-58 35-67 28-9 59 6 68 34l62 188c0-2 1-5 2-8l19-52-61-166c-1-2-2-4-2-6l-95-265c-10-28 5-59 33-69 6-2 12-3 18-3 22 0 43 14 51 36l82 230h62l82-230c8-22 29-36 51-36 6 0 12 1 18 3 28 10 43 41 33 69l-95 265c0 2-1 4-2 6l-60 166 18 52c1 3 2 6 2 8z" horiz-adv-x="500" />
<glyph glyph-name="icon155" unicode="&#xe898;" d="m744 457l-156 122 11 27c9 23-3 49-26 58-23 9-49-3-58-26l-67-171h-396c-25 0-46-20-46-45 0-25 21-45 46-45h115l-68-289c-6-24 9-48 33-53 4-1 7-2 11-2 20 0 39 14 43 35l34 142h245l-26-123c-5-24 10-48 34-53 4 0 7-1 10-1 21 0 39 15 44 36l66 308h122c19 0 37 12 43 30 6 18 0 38-14 50z m-176 18c-17 0-30 13-30 29 0 15 13 28 30 28 15 0 29-13 29-28 0-16-14-29-29-29z" horiz-adv-x="767" />
<glyph glyph-name="icon152" unicode="&#xe899;" d="m202 673c0 59 48 107 108 107 60 0 109-48 109-107 0-59-49-107-109-107-60 0-108 48-108 107z m410-259l-266 120c0 1-1 1-2 1-2 1-4 2-6 2-2 1-4 1-5 1-2 1-4 1-6 1-2 0-4 1-6 1-2 0-4-1-6-1-2 0-3 0-5-1-2 0-4 0-6-1-2-1-4-1-6-2-1 0-1-1-2-1l-259-120c-29-14-42-49-28-78 10-22 32-34 54-34 8 0 17 1 25 5l153 71c-2-6-3-11-3-17v-65l-144-76c-28-15-40-51-24-79l100-189c10-20 31-32 53-32 9 0 18 2 27 7 30 15 41 51 26 80l-73 137 78 41c5-1 11-2 17-2h49c6 0 12 1 17 2l82-42-72-136c-15-29-4-65 26-80 8-5 18-7 27-7 22 0 43 12 53 32l100 189c8 14 9 30 4 45-5 15-15 27-29 35l-148 75v65c0 6-1 12-3 17l158-71c8-4 17-5 25-5 23 0 44 12 54 34 14 30 1 65-29 78z" horiz-adv-x="650" />
<glyph glyph-name="icon151" unicode="&#xe89a;" d="m582 588c0 47 39 86 87 86s86-39 86-86c0-47-39-85-86-85-48 0-87 38-87 85z m-331-286c5 0 9 0 13 1l305 84h308c26 0 48 21 48 47 0 26-22 47-48 47h-287l-87 149c-11 19-32 28-53 22l-180-45c-25-7-41-32-34-58 7-25 33-40 58-33l145 36 52-89-252-69c-26-7-40-33-34-58 6-21 26-34 46-34z m-223-110c4-2 73-32 175-32 61 0 134 10 212 44 61 27 123 40 193 40 66 0 130 0 194 0h98c26 0 48 21 48 47 0 26-22 47-48 47h-98c-64 0-128 0-195 0-83 0-157-15-231-47-168-73-302-16-308-13-24 11-53 0-64-23-11-24 0-52 24-63z m872 13l-98 0c-64 0-128 0-195 0-83 0-157-15-231-48-167-73-302-15-308-12-24 10-53 0-64-24-11-23 0-51 24-62 4-2 73-33 175-33 61 0 134 11 212 45 61 27 123 39 193 39 66 1 130 1 194 1l98-1c26 0 47 22 47 48 1 26-21 47-47 47z" horiz-adv-x="950" />
<glyph glyph-name="icon154" unicode="&#xe89b;" d="m160 720c0 53 44 97 98 97s99-44 99-97c0-54-44-97-99-97-54 0-98 43-98 97z m354-420l-95 248c-8 21-28 35-50 35h-221c-22 0-43-14-51-35l-94-248c-11-28 3-59 31-69 28-11 60 3 70 31l46 119-15-174-27-265c-3-29 19-56 49-58 1-1 3-1 5-1 28 0 51 21 54 48l22 218h41l22-218c3-27 26-48 54-48 1 0 3 0 5 1 30 3 51 29 48 58l-27 265-14 174 46-119c8-21 28-35 50-35 7 0 13 2 20 4 27 10 41 41 31 69z" horiz-adv-x="517" />
<glyph glyph-name="icon158" unicode="&#xe89c;" d="m133 439c0 49 41 90 91 90 51 0 91-40 91-90 0-50-40-90-91-90-50 0-91 40-91 90z m695-10h-388l18 90c6 27-12 53-39 58-27 6-54-12-59-39l-30-149c-3-15 1-30 10-41 10-12 24-18 39-18h399v-30h-672v259c0 27-22 49-50 49-28 0-51-22-51-49v-308-110c0-27 23-49 51-49 28 0 50 22 50 49v60h672v-60c0-27 22-49 50-49 27 0 50 22 50 49v110 128c0 28-23 50-50 50z" horiz-adv-x="883" />
<glyph glyph-name="icon156" unicode="&#xe89d;" d="m118 265c-65 0-117 52-117 116 0 63 52 115 117 115 64 0 116-52 116-115 0-64-52-116-116-116z m248 154c64 0 117 52 117 116 0 63-53 115-117 115-65 0-117-52-117-115 0-64 52-116 117-116z m248 96c-65 0-117-51-117-115 0-64 52-116 117-116 64 0 116 52 116 116s-52 115-116 115z m-205-163c-10 12-25 19-41 19 0 0 0 0-1 0-15 0-30-7-41-18l-194-210c-14-17-19-40-10-60 9-20 30-33 52-33h384c22 0 42 13 51 33 9 20 5 43-10 59l-190 210z" horiz-adv-x="733" />
<glyph glyph-name="icon160" unicode="&#xe89e;" d="m882 410c44-34 50-58 50-76 0-28 0-32 0-39v-13c0-19 16-34 35-34 19 0 34 15 34 34l0 12c0 8 0 12 0 40 0 48-25 91-77 130-21 16-46 40-46 66 0 27 27 48 28 49 15 11 18 32 6 47-11 15-32 18-48 7-5-4-54-41-55-102 0-43 24-84 73-121z m-91 54c-21 16-46 40-46 66 0 27 27 48 28 49 15 11 18 32 6 47-11 15-33 19-48 7-5-4-54-41-55-102 0-43 24-84 73-121 44-34 50-58 50-76 0-28 0-32 0-39l0-13c0-19 16-34 34-34 20 0 35 15 35 34v12c0 8 0 12 0 40 0 48-25 91-77 130z m-791-336c0-37 31-68 69-68h728v136h-728c-38 0-69-30-69-68z m947 68h-78v-136h78c38 0 69 31 69 68 0 38-31 68-69 68z" horiz-adv-x="1017" />
<glyph glyph-name="icon159" unicode="&#xe89f;" d="m77 524c0 53 43 95 97 95 53 0 96-42 96-95 0-53-43-95-96-95-54 0-97 42-97 95z m461-584c-24 0-43-19-43-43 0-24 19-44 43-44 24 0 44 20 44 44 0 24-20 43-44 43z m79 514c-5 27-29 44-55 42l-232 339c-8 11-22 15-34 9l-113-57c-7-3-12-9-14-16-2-7-1-14 3-20l9-15c6-12 22-17 34-11l96 45 193-284-213-41c-15-3-27-12-35-24-8-13-10-28-6-42l45-154-278-283c-21-21-21-54 1-74 10-10 24-15 37-15 14 0 28 5 38 16l178 180-26-134c-5-28 14-56 43-61 3-1 6-1 10-1 25 0 47 18 52 43l57 305v0c1 4 1 7 1 11 0 1 0 3 0 4-1 2-1 5-2 8 0 0 0 1 0 1l-37 128 206 40c29 5 48 33 42 61z" horiz-adv-x="617" />
<glyph glyph-name="icon167" unicode="&#xe8a0;" d="m428 595h-121c-14 0-30-19-30-43v-87h151v-122h-151v-368h-142v368h-129v122h129v73c0 103 72 187 172 187h121l0-130 0 0z" horiz-adv-x="433" />
<glyph glyph-name="icon168" unicode="&#xe8a1;" d="m38 524c0-59 20-101 59-126 32-21 70-24 89-24 5 0 9 0 12 0 0 0-7-39 23-78h-1c-52 0-220-11-220-148 0-139 154-146 185-146 3 0 4 0 4 0 1 0 3 0 7 0 19 0 71 3 119 26 61 29 93 81 93 153 0 70-48 111-83 142-21 18-40 34-40 50s14 27 31 43c27 24 53 58 53 124 0 58-7 96-54 121 5 2 22 4 31 5 25 4 62 8 62 28v4h-184c-2 0-186-7-186-174z m297-356c3-55-45-96-117-102-73-5-134 28-137 83-2 27 10 53 33 74 24 21 56 34 91 37 4 0 9 0 13 0 68 0 114-39 117-92z m-48 394c18-62-9-128-53-140-5-1-10-2-15-2-40 0-79 40-94 95-8 30-7 57 2 83 9 25 26 43 46 48 5 2 11 3 16 3 48 0 79-20 98-87z m310-136v119h-76v-119h-120v-75h120v-119h76v119h120v75h-120z" horiz-adv-x="717" />
<glyph glyph-name="icon169" unicode="&#xe8a2;" d="m267 217c-22-114-48-223-128-280-24 172 36 301 64 438-48 80 6 240 107 201 124-49-108-297 48-328 163-32 229 279 128 380-146 146-424 3-390-205 9-52 62-67 22-138-94 21-121 93-118 190 6 159 144 270 283 285 176 20 341-63 363-227 26-184-79-383-267-369-50 4-72 29-112 53z" horiz-adv-x="650" />
<glyph glyph-name="icon170" unicode="&#xe8a3;" d="m699 510c-39-222-259-410-325-454-66-43-126 18-148 63-24 52-99 334-119 357-19 24-78-23-78-23l-29 37c0 0 120 144 211 162 96 19 96-149 119-242 22-90 37-142 57-142 19 0 57 50 98 127 41 78-2 146-82 97 32 194 335 241 296 18z" horiz-adv-x="700" />
<glyph glyph-name="icon161" unicode="&#xe8a4;" d="m466 228c-6-2-12-3-19-4-20 0-40 12-48 32l-46 111 18-164 33-249c3-28-16-53-44-57-2 0-4 0-5 0-26-1-49 18-53 44l-27 204-38-1-15-205c-2-27-23-47-49-47-2 0-4 0-6 0-28 2-49 26-47 54l18 251 14 254-96-3c-16-1-30 6-40 17-10 11-15 26-13 41l22 143c4 27 30 46 58 42 28-4 47-30 43-57l-13-83 235 6c22 1 41-12 49-31l97-232c10-26-2-55-28-66z m-322 500c2-2 5-3 8-3l172 5c3 0 6 1 8 3l20 25c2 3 3 6 2 9 0 4-3 6-6 8l-72 32c-2 1-3 1-5 1l-71-2c-1 0-3 0-4-1l-70-37c-3-1-5-4-6-7 0-4 1-7 3-10l21-23z m4-47c0-25 12-48 29-64 17-16 40-25 66-25l0 0 0 0c51 2 92 44 90 95 0 6-1 12-2 18l-182-5c-1-6-1-12-1-19z" horiz-adv-x="500" />
<glyph glyph-name="icon165" unicode="&#xe8a5;" d="m528 490l-448 255c-13 6-24 10-33 11l376-371 105 105z m-526 238c-2-6-2-11-2-11l0 0v-735c0 0 0-6 3-13l384 380-385 379z m49-784c8 2 18 5 29 11l448 255-105 103-372-369z m682 429l-158 90-115-114 114-113 159 91c23 13 23 33 0 46z" horiz-adv-x="750" />
<glyph glyph-name="icon162" unicode="&#xe8a6;" d="m810 777h-770c-22 0-40-18-40-40v-774c0-22 18-40 40-40h770c22 0 40 18 40 40v774c0 22-18 40-40 40z m-692-317v-287h-50v287h-43l68 67 68-67h-43l0 0z m524-478h-435v736h435l0-736 0 0z m101 191l-67 67h42v287h51v-287h42l-68-67z m-373 385c0 30 25 54 55 54 31 0 55-24 55-54 0-30-24-55-55-55-30 0-55 25-55 55z m-89-236l54 139c4 12 15 20 28 20h124c13 0 24-8 29-20l53-139c5-16-2-33-18-39-4-1-7-2-11-2-12 0-24 8-28 20l-26 67 8-98 15-149c2-17-10-31-27-33-1 0-2 0-3 0-15 0-28 11-30 27l-13 122h-23l-12-122c-2-16-15-27-30-27-1 0-2 0-3 0-17 2-29 16-28 33l16 149 8 98-26-67c-6-16-23-24-39-18-16 6-24 23-18 39z" horiz-adv-x="850" />
<glyph glyph-name="icon164" unicode="&#xe8a7;" d="m477 739c2 0 3 0 5 0 5-55-17-96-42-125-25-30-60-58-116-54-4 54 17 92 43 122 24 27 68 52 110 57z m65-427c-7 82 33 130 84 162-27 40-69 67-129 76-50 7-88-9-127-22-13-5-26-12-39-12-19-1-40 10-56 16-17 7-37 13-56 16-45 7-85-8-114-26-56-34-98-102-101-187 0-12 0-24 0-35 8-119 55-212 114-283 20-25 48-52 83-56 5 0 10 0 16 0 47 6 75 32 126 31 49-1 80-30 127-30 55 0 86 45 111 79 27 38 50 78 65 125 0 1 0 1 0 2-54 25-98 69-104 144z" horiz-adv-x="650" />
<glyph glyph-name="icon166" unicode="&#xe8a8;" d="m657 497c0-7 0-13 0-20 0-194-150-419-424-419-84 0-163 25-228 67 11-2 23-3 35-3 70 0 134 24 185 64-65 1-120 43-139 102 9-2 18-3 28-3 14 0 27 2 39 5-68 14-119 73-119 145 0 1 0 1 0 2 20-11 43-18 67-19-40 27-66 72-66 123 0 27 7 52 20 74 74-89 184-148 307-154-2 11-3 22-3 34 0 81 66 147 149 147 42 0 81-18 108-47 34 7 66 19 95 36-11-34-35-63-66-82 31 4 59 12 86 24-20-30-45-56-74-76z" horiz-adv-x="733" />
<glyph glyph-name="icon163" unicode="&#xe8a9;" d="m850 277c0-22-18-40-40-40h-24c-14-64-60-120-125-160l20-32c11-19 5-43-14-55-7-4-14-6-21-6-14 0-27 7-35 20l-23 38c-49-18-104-27-163-27-59 0-113 9-163 27l-23-38c-8-13-21-20-35-20-7 0-14 2-20 6-20 12-26 36-14 55l19 32c-65 40-111 96-125 160h-23c-23 0-41 18-41 40s18 40 41 40h102v331c0 37 30 68 68 68 36 0 65-28 68-63 20-8 36-28 36-52h-113c0 24 15 44 36 52-3 13-14 23-27 23-15 0-28-13-28-28v-331h627c22 0 40-18 40-40z" horiz-adv-x="850" />
<glyph glyph-name="icon178" unicode="&#xe8aa;" d="m359 578c0 63 51 114 115 114 63 0 115-51 115-114 0-63-52-114-115-114-64 0-115 51-115 114z m-95-95c47 0 85 38 85 84 0 46-38 83-85 83-46 0-84-37-84-83 0-46 38-84 84-84z m367-195c0 86-70 155-157 155-41 0-78-15-106-40-18 38-58 65-104 65-33 0-63-14-84-37-16 30-47 50-83 50-52 0-95-42-95-94 0-2 1-4 1-6h-1v-161h147v-71h168v-141h314v270h0c0 3 0 6 0 10z m-534 205c38 0 69 30 69 68 0 38-31 69-69 69-38 0-69-31-69-69 0-38 31-68 69-68z" horiz-adv-x="633" />
<glyph glyph-name="icon179" unicode="&#xe8ab;" d="m157 567l-53 175h45l30-116h2l28 116h46l-52-169v-120h-46l0 114 0 0z m96 50c0 17 6 30 16 40 11 9 26 14 44 14 17 0 30-5 41-15 10-10 16-24 16-40v-110c0-18-6-33-16-43-10-10-24-16-43-16-17 0-32 6-42 16-10 11-16 26-16 44l0 110 0 0z m42-114c0-6 1-11 4-14 3-3 7-5 12-5 5 0 10 2 13 5 3 4 5 8 5 14v116c0 4-2 8-5 11-4 3-8 4-13 4-5 0-9-1-12-4-3-3-4-6-4-11l0-116 0 0z m137-53c7 0 15 2 23 7 8 4 15 11 23 19v-23h40v213h-40v-162c-4-4-8-8-12-11-5-3-8-5-12-5-4 0-6 1-8 4-1 2-2 5-2 11v163h-40v-178c0-13 2-22 7-29 4-6 12-9 21-9z m-29-230c-3 0-6-1-9-2-2-2-5-4-8-7v-132c3-4 7-7 10-8 3-2 6-2 9-2 5 0 9 1 11 4 2 3 3 8 3 15v110c0 7-1 13-4 16-3 4-7 6-12 6z m147-1c-6 0-11-2-13-6-3-3-5-10-5-19v-21h36v21c0 9-2 16-4 19-3 4-8 6-14 6z m114-41c0-40-2-81-5-122 0-52-43-93-95-93-75-4-152-5-231-5-78 0-155 1-230 5-53 0-96 41-96 93-3 41-4 82-4 122 0 41 1 82 4 123 0 51 43 93 96 93 71 3 144 4 218 4 5 0 8 0 12 0 4 0 8 0 12 0 74 0 147-1 219-4 52 0 95-42 95-93 3-41 5-82 5-123z m-518 107h47v42h-139v-42h47v-247h45l0 247 0 0z m160-34h-40v-162c-3-4-7-8-12-11-5-3-8-5-11-5-4 0-7 1-8 4-2 2-3 6-3 11v163h-40v-178c0-13 3-22 7-29 5-6 12-9 21-9 8 0 15 2 23 7 8 4 16 11 23 19v-23h40l0 213 0 0z m155-51c0 18-3 31-10 40-7 9-16 14-29 14-7 0-13-2-19-5-6-4-11-9-17-15v93h-40v-289h40v16c6-6 11-11 17-14 6-3 13-5 21-5 12 0 21 4 27 12 7 8 10 20 10 35l0 118 0 0z m148-6c0 20-5 36-15 46-10 11-24 16-42 16-18 0-33-5-44-17-11-12-17-27-17-45v-96c0-20 5-36 15-48 11-12 25-18 43-18 20 0 35 6 45 17 10 11 15 27 15 49v16h-41v-15c0-12-1-20-4-24-3-4-7-6-14-6-7 0-11 3-14 7-2 4-4 12-4 23v41h77v54l0 0 0 0z" horiz-adv-x="667" />
<glyph glyph-name="icon180" unicode="&#xe8ac;" d="m446 31c-31-15-59-25-83-31-25-6-52-8-81-8-33 0-62 4-87 12-25 8-46 20-64 36-18 15-31 31-37 48-7 18-11 43-11 75v252h-79v101c28 9 53 22 73 39 20 17 36 38 48 62 12 24 21 54 25 91h102v-181h170v-112h-170v-184c0-42 2-68 6-80 5-12 13-21 25-28 16-10 34-15 54-15 37 0 73 12 109 36v-113l0 0z" horiz-adv-x="450" />
<glyph glyph-name="icon171" unicode="&#xe8ad;" d="m163 192c-87 0-157 71-157 158 0 88 70 158 157 158 87 0 158-70 158-158 0-87-71-158-158-158z m407 0c-87 0-157 71-157 158 0 88 70 158 157 158 87 0 157-70 157-158 0-87-70-158-157-158z" horiz-adv-x="733" />
<glyph glyph-name="icon172" unicode="&#xe8ae;" d="m37 180l16 69-16 71c-1 2-5 4-10 4-5 0-9-2-10-4l-14-71 14-69c1-2 5-4 10-4 5 0 9 2 10 4z m102-39l14 107-14 165c-1 4-6 7-12 7-6 0-12-3-12-7l-12-165 12-107c0-4 6-7 12-7 6 0 11 3 12 7z m102 2l11 105-11 220c-1 5-7 9-14 9-8 0-14-4-14-9l-11-220 11-105c0-5 6-9 14-9 7 0 13 4 14 9z m101 2l10 103-10 221c0 6-7 11-15 11-9 0-16-5-17-11l-8-221 8-103c1-6 8-11 17-11 8 0 15 5 15 11z m102 1l8 102-8 254c0 6-8 12-18 12-9 0-17-6-17-12l-7-254c0 0 7-102 7-102 0-7 8-12 17-12 10 0 18 5 18 12z m71-12c1 0 354-1 357-1 71 0 128 55 128 123 0 68-57 123-128 123-18 0-35-4-50-10-10 111-108 198-226 198-29 0-57-6-82-15-10-4-13-7-13-14v-390c0-7 7-14 14-14z" horiz-adv-x="1000" />
<glyph glyph-name="icon173" unicode="&#xe8af;" d="m396 408l48-23 73 23v42c0 86-71 156-158 156-88 0-159-70-159-156v-220c0-20-17-36-37-36-21 0-37 16-37 36v92h-122v-92c0-86 71-156 159-156 87 0 158 70 158 156v220c0 20 17 37 38 37 20 0 37-17 37-37v-42l0 0z m196-86v-92c0-20-17-36-38-36-20 0-37 16-37 36v94l-73-23-48 23v-94c0-86 71-156 158-156 88 0 159 70 159 156v92h-121z" horiz-adv-x="717" />
<glyph glyph-name="icon174" unicode="&#xe8b0;" d="m151 605c0-39-29-71-77-71-45 0-74 32-74 71 0 40 30 70 76 70 46 0 74-30 75-70z m-147-580v454h142v-454h-142z m228 309c0 56-2 104-4 145h123l7-64h3c19 30 65 74 142 74 93 0 164-62 164-196v-268h-143v251c0 59-20 99-72 99-39 0-63-27-73-53-4-9-5-23-5-35v-262h-142v309h0z" horiz-adv-x="667" />
<glyph glyph-name="icon175" unicode="&#xe8b1;" d="m350 451c-54 94-111 170-116 176-86-40-150-119-170-214 8 0 137-2 286 38z m38-103c4 1 8 2 12 3-7 18-16 35-25 52-159-47-312-43-318-43 0-3 0-7 0-10 0-79 30-150 79-205 0 1 0 1 0 1s85 148 252 202z m-212-239v0c-2 2-4 3-7 5 4-3 7-5 7-5z m117 538c0 0-1 0-1 0 0 0 0 0 1 0h0z m278-67c-54 47-126 76-204 76-26 0-50-3-73-8 4-7 63-83 115-179 117 43 161 110 162 111z m-204-588c-201 0-363 160-363 358 0 198 162 358 363 358 200 0 362-160 362-358 0-198-162-358-362-358z m53 308c-182-63-242-189-244-191 53-41 119-65 191-65 43 0 84 9 121 24-5 27-23 121-66 233-1-1-2-1-2-1z m13 123c8-14 14-29 21-44 2-5 5-11 7-16 107 13 212-9 215-10 0 73-26 139-70 192-1-1-50-72-173-122z m46-108c41-111 58-200 61-219 69 47 119 120 132 206-6 2-93 29-193 13z" horiz-adv-x="733" />
<glyph glyph-name="icon177" unicode="&#xe8b2;" d="m317 517c-3 0-5-1-8-2l-45 91-133-15 55-110c-282-115-157-387-157-387l428 122-117 238c211 60 387-63 387-63l-145-39-42 77c-39 7-84 10-132 2l99-200 428 122c0 0-155 242-618 164z m-172-282c0 0-41 90 79 168l64-130-143-38z" horiz-adv-x="933" />
<glyph glyph-name="icon176" unicode="&#xe8b3;" d="m323 373c16 8 28 18 36 27 15 18 23 41 23 70 0 28-8 53-22 73-24 33-66 50-125 50h-232v-474h216c25 0 47 2 68 6 21 4 39 12 55 24 13 10 24 22 34 37 14 23 21 48 21 76 0 27-6 50-18 70-13 19-32 33-56 41z m-224 138h104c23 0 42-3 57-8 17-7 26-21 26-43 0-20-6-34-20-42-13-8-30-12-50-12h-117v105l0 0z m165-302c-12-5-28-8-48-8h-117v127h118c21-1 37-3 48-8 20-10 31-27 31-51 0-30-11-49-32-60z m513 129c-4 28-14 52-28 73-16 23-37 41-61 52-25 10-53 16-84 16-52 0-94-16-127-49-33-32-49-79-49-140 0-65 18-111 54-140 36-29 78-43 126-43 57 0 101 17 133 51 20 21 32 42 35 63h-95c-6-10-12-18-20-24-13-11-30-16-51-16-20 0-37 4-51 13-23 14-36 39-37 74h259c0 31-1 54-4 70z m-253-9c3 23 12 41 25 54 13 14 31 20 55 20 22 0 40-6 55-19 15-12 23-31 25-55l-160 0 0 0z m182 183h-206v59h206v-59z" horiz-adv-x="783" />
<glyph glyph-name="icon183" unicode="&#xe8b4;" d="m540 702c57-32 148-376 50-550-84-149-276-203-427-120-152 84-209 274-122 423 17 30 44 57 50 64 3 3 21-8 15-17-28-99-15-168 20-233 2-2 15-7 16-2 8 203 115 331 243 417 73 22 134 29 155 18" horiz-adv-x="633" />
<glyph glyph-name="icon181" unicode="&#xe8b5;" d="m522 350c0-107-89-194-197-194-109 0-196 87-196 194 0 13 1 25 3 37h-132v-258c0-55 46-100 102-100h446c57 0 102 45 102 100v258h-132c2-12 4-24 4-37z m26 321h-446c-56 0-102-45-102-100v-109h165c35 50 94 82 160 82 66 0 125-32 160-82h165v109c0 55-45 100-102 100z m50-124c0-10-8-18-18-18h-54c-10 0-19 8-19 18v54c0 10 8 18 19 18h54c10 0 18-8 18-18v-54z m-152-197c0 66-54 120-121 120-67 0-121-54-121-120 0-66 54-119 121-119 67 0 121 53 121 119z" horiz-adv-x="650" />
<glyph glyph-name="icon182" unicode="&#xe8b6;" d="m693 272c5 23 8 48 8 74 0 190-151 344-338 345-20 0-39-2-58-5-30 19-66 31-105 31-108 0-196-89-197-200 0-37 10-71 27-101-4-22-7-45-7-69 0-190 151-345 338-345 22 0 43 1 63 5 27-15 59-24 92-24 109 0 197 89 197 200 1 32-7 62-20 89z m-157-91c-16-22-39-40-69-53-30-12-66-19-106-19-49 0-90 9-122 27-22 12-41 29-55 50-15 21-22 42-22 62 0 13 5 24 14 33 10 9 22 13 36 13 12 0 21-4 30-11 8-6 14-16 19-29 6-14 13-26 20-35 7-9 16-17 28-23 13-6 29-9 49-9 28 0 51 6 69 18 17 12 25 26 25 43 0 14-4 25-13 33-9 9-21 16-36 20-16 5-36 10-62 16-36 8-65 17-89 27-24 11-44 25-58 44-15 18-22 42-22 69 0 26 8 49 23 70 15 20 37 35 66 46 28 10 62 16 99 16 31 0 57-4 80-11 22-7 41-17 55-29 15-12 26-24 33-37 7-14 11-27 11-40 0-12-5-23-14-33-9-10-21-15-35-15-13 0-22 4-29 10-6 5-13 14-20 27-9 16-19 29-31 38-11 9-30 14-56 14-25 0-44-5-59-15-14-9-21-20-21-33 0-8 2-14 7-20 5-6 11-11 20-15 9-5 18-9 27-11 10-3 25-7 47-12 27-6 53-13 75-20 22-8 42-17 58-27 16-11 29-25 38-41 9-17 14-37 14-61-1-28-8-54-24-77z" horiz-adv-x="717" />
<glyph glyph-name="icon184" unicode="&#xe8b7;" d="m739 17h-728c0 215 100 317 239 352-38 33-62 81-62 135 0 99 82 179 184 179 101 0 184-80 184-179 0-53-24-101-61-134 142-33 244-135 244-353z" horiz-adv-x="750" />
<glyph glyph-name="icon185" unicode="&#xe8b8;" d="m134 252c-74 0-134 60-134 133 0 74 60 134 134 134 73 0 133-60 133-134 0-73-60-133-133-133z m283 178c74 0 134 60 134 133 0 74-60 134-134 134s-133-60-133-134c0-73 60-133 133-133z m284 111c-74 0-134-60-134-133 0-74 60-134 134-134 73 0 133 60 133 134 0 73-60 133-133 133z m-234-188c-12 13-30 21-48 21 0 0 0 0 0 0-18 0-35-8-47-21l-222-243c-16-18-21-45-11-69 11-23 33-38 59-38h439c25 0 48 15 58 38 10 23 6 50-11 69l-217 243z" horiz-adv-x="833" />
<glyph glyph-name="icon186" unicode="&#xe8b9;" d="m137 696c0 50 40 91 90 91 51 0 91-41 91-91 0-50-40-90-91-90-50 0-90 40-90 90z m163-250l57-176c7-21 26-35 48-35 5 0 10 1 15 3 26 8 41 36 32 63l-75 232c-7 21-26 35-48 35h-204c-21 0-41-14-47-35l-75-232c-9-27 5-55 32-63 26-9 54 5 63 32l57 176c0-3 1-5 2-8l17-49-55-155c-1-2-2-4-3-6l-88-248c-9-26 5-55 31-64 5-2 11-3 17-3 20 0 40 13 47 33l76 216h57l76-216c7-20 26-33 47-33 6 0 11 1 17 3 26 9 40 38 30 64l-87 248c-1 2-2 4-3 6l-55 155 17 49c1 3 1 5 2 8z m294 159c50 0 90 41 90 91 0 50-40 91-90 91-50 0-91-41-91-91 0-50 41-91 91-91z m236-302l-87 232c-8 20-27 33-47 33h-204c-21 0-40-13-47-33l-88-232c-10-26 3-55 29-65 26-9 55 4 65 30l42 111-13-163-25-248c-3-27 17-52 44-55 2 0 4 0 6 0 25 0 47 19 49 45l21 204h37l21-204c3-26 24-45 50-45 1 0 3 0 5 0 27 3 47 28 45 55l-25 248-14 163 42-111c8-20 27-33 47-33 6 0 12 1 18 3 26 10 39 39 29 65z" horiz-adv-x="833" />
<glyph glyph-name="icon187" unicode="&#xe8ba;" d="m223 35c-19 0-38 9-50 25l-160 212c-21 28-16 67 12 88 28 21 67 16 88-12l105-140 266 427c18 30 57 39 87 20 29-18 38-57 20-86l-314-504c-11-18-30-29-51-30-1 0-2 0-3 0z" horiz-adv-x="600" />
<glyph glyph-name="icon189" unicode="&#xe8bb;" d="m276 733c-22 7-42 5-59-3-18-8-29-21-34-37l-7-25c-4-16-1-33 10-49 10-16 27-28 48-34 22-6 41-5 58 4 17 9 28 21 32 37l7 26c5 16 2 32-8 48-10 16-25 27-47 33z m-53-190c-22 6-42 5-60-3-17-9-29-21-33-38l-128-452c-5-17-1-33 9-50 11-16 27-27 49-34 22-6 41-4 58 4 17 9 28 22 32 38l128 453c4 16 1 32-8 49-10 16-26 27-47 33z" horiz-adv-x="333" />
<glyph glyph-name="icon190" unicode="&#xe8bc;" d="m437 287l51-108-94 65-93-227-31 230-108-51 65 93-227 94 230 30-51 109 93-65 94 226 30-230 109 52-65-94 227-94-230-30z" horiz-adv-x="667" />
<glyph glyph-name="icon188" unicode="&#xe8bd;" d="m612 595h-557c-30 0-55-25-55-57v-376c0-31 25-57 55-57h557c30 0 55 26 55 57v376c0 32-25 57-55 57z m-535-37h512c4 0 7-1 11-2l-239-224c-8-8-17-12-28-12-9 0-19 4-26 11 0 0 0 0 0 0l-240 225c3 1 7 2 10 2z m549-384l-127 120c-9 9-23 8-31-1-9-8-8-23 1-31l125-119c-2 0-3-1-5-1h-511c-2 0-4 1-5 1l123 118c9 8 9 23 1 32-9 9-23 9-32 0l-124-119c-2 6-3 11-3 17l-1 318c0 7 2 14 4 20l247-230c0 0 0 0 0 0 13-12 29-19 45-19 17 0 34 7 47 20 0 0 0 0 0 0l245 230c2-7 4-14 4-21l0-317c0-7-1-12-3-18z" horiz-adv-x="667" />
<glyph glyph-name="soap-icon-automatic-transmission" unicode="&#xe8be;" d="m419 718c-4 15-14 27-29 38-16 10-34 16-54 16-21 0-40-6-54-16-15-11-25-23-29-38l-251-709c-4-14-2-30 8-45 10-16 27-27 50-33 20-5 39-3 55 5 17 9 28 20 33 35l47 150h279l46-149c4-14 15-26 32-34 16-9 35-11 56-6 24 6 40 17 49 33 9 16 12 31 8 46l-246 707z m-184-472l101 317 98-317h-199z" horiz-adv-x="667" />
<glyph glyph-name="icon-hotel-plane" unicode="&#xe8bf;" d="m645 56c0 49 23 65 23 65l46 37-15 144-209-69c0 50 45 76 45 76l164 109v36c0 0 8 189 46 189 39 0 47-189 47-189v-36l163-109c0 0 45-26 45-76l-208 69-16-144 46-37c0 0 24-16 24-65l-101 46-100-46z m-73 0h-572c0 16 14 30 30 30h33v559h227v-559h32v328h27v73h33v71h24l10 87 0 0 10-87h23v-71h34v-73h27v-328h32c17 0 30-14 30-30z m-142 268h41v41h-41v-41z m0-65h41v41h-41v-41z m0-66h41v41h-41v-41z m-70 131h41v41h-41v-41z m0-65h41v41h-41v-41z m0-66h41v41h-41v-41z m-169 355h41v41h-41v-41z m0-65h41v41h-41v-41z m0-66h41v41h-41v-41z m0-68h41v41h-41v-41z m0-65h41v41h-41v-41z m0-66h41v41h-41v-41z m-70 330h41v41h-41v-41z m0-65h41v41h-41v-41z m0-66h41v41h-41v-41z m0-68h41v41h-41v-41z m0-65h41v41h-41v-41z m0-66h41v41h-41v-41z" horiz-adv-x="1000" />
</font>
</defs>
</svg>
